{
    "asset" : {
        "generator" : "Khronos glTF Blender I/O v0.9.36",
        "version" : "2.0"
    },
    "extensionsUsed" : [
        "KHR_lights_punctual"
    ],
    "extensionsRequired" : [
        "KHR_lights_punctual"
    ],
    "extensions" : {
        "KHR_lights_punctual" : {
            "lights" : [
                {
                    "color" : [
                        1,
                        1,
                        1
                    ],
                    "intensity" : 5000,
                    "type" : "point",
                    "name" : "light1.002"
                },
                {
                    "color" : [
                        1,
                        1,
                        1
                    ],
                    "intensity" : 2000,
                    "type" : "point",
                    "name" : "Point.001"
                },
                {
                    "color" : [
                        1,
                        1,
                        1
                    ],
                    "intensity" : 100,
                    "type" : "point",
                    "name" : "light1.003"
                },
                {
                    "color" : [
                        1,
                        1,
                        1
                    ],
                    "intensity" : 2000,
                    "type" : "point",
                    "name" : "Point.002"
                },
                {
                    "color" : [
                        1,
                        0.7616661787033081,
                        0.936859667301178
                    ],
                    "intensity" : 2000,
                    "type" : "point",
                    "name" : "Point.004"
                },
                {
                    "color" : [
                        0.7953725457191467,
                        0.7601474523544312,
                        1
                    ],
                    "intensity" : 5000,
                    "type" : "point",
                    "name" : "light1.007"
                },
                {
                    "color" : [
                        1,
                        0.8515785336494446,
                        0.8253245949745178
                    ],
                    "intensity" : 5000,
                    "type" : "point",
                    "name" : "Point.006"
                },
                {
                    "color" : [
                        1,
                        1,
                        1
                    ],
                    "intensity" : 500,
                    "type" : "point",
                    "name" : "Point.007"
                }
            ]
        }
    },
    "scene" : 0,
    "scenes" : [
        {
            "name" : "Scene",
            "nodes" : [
                1,
                2,
                3,
                4,
                5,
                7,
                9,
                11,
                13,
                15,
                17,
                19,
                21
            ]
        }
    ],
    "nodes" : [
        {
            "camera" : 0,
            "name" : "Camera_Orientation",
            "rotation" : [
                -0.7071067690849304,
                0,
                0,
                0.7071067690849304
            ]
        },
        {
            "children" : [
                0
            ],
            "name" : "Camera",
            "rotation" : [
                0.00032258202554658055,
                0,
                0,
                1
            ],
            "translation" : [
                0.08167523145675659,
                9.997551918029785,
                -0.012248202227056026
            ]
        },
        {
            "mesh" : 0,
            "name" : "Cylinder",
            "scale" : [
                1.3072837591171265,
                1.1914066076278687,
                1.3567790985107422
            ],
            "translation" : [
                -3.3398797512054443,
                0.42775797843933105,
                -2.032229423522949
            ]
        },
        {
            "name" : "SurfPatch",
            "rotation" : [
                1,
                0,
                0,
                -4.371138828673793e-08
            ],
            "translation" : [
                -1.7088311910629272,
                25.04123306274414,
                -5.333444595336914
            ]
        },
        {
            "mesh" : 1,
            "name" : "Plane",
            "scale" : [
                22.75143814086914,
                10.71629810333252,
                13.184638977050781
            ],
            "translation" : [
                0,
                -0.6682076454162598,
                0
            ]
        },
        {
            "mesh" : 2,
            "name" : "Main",
            "translation" : [
                0,
                0.4085211157798767,
                0
            ]
        },
        {
            "extensions" : {
                "KHR_lights_punctual" : {
                    "light" : 0
                }
            },
            "name" : "Point.002_Orientation",
            "rotation" : [
                -0.7071067690849304,
                0,
                0,
                0.7071067690849304
            ]
        },
        {
            "children" : [
                6
            ],
            "name" : "Point.002",
            "translation" : [
                -5.41894006729126,
                5.014706134796143,
                -4.719587802886963
            ]
        },
        {
            "extensions" : {
                "KHR_lights_punctual" : {
                    "light" : 1
                }
            },
            "name" : "Point.003_Orientation",
            "rotation" : [
                -0.7071067690849304,
                0,
                0,
                0.7071067690849304
            ]
        },
        {
            "children" : [
                8
            ],
            "name" : "Point.003",
            "translation" : [
                6.491669654846191,
                4.585280418395996,
                -3.9139304161071777
            ]
        },
        {
            "extensions" : {
                "KHR_lights_punctual" : {
                    "light" : 2
                }
            },
            "name" : "Point.004_Orientation",
            "rotation" : [
                -0.7071067690849304,
                0,
                0,
                0.7071067690849304
            ]
        },
        {
            "children" : [
                10
            ],
            "name" : "Point.004",
            "translation" : [
                -0.9903149604797363,
                5.737835884094238,
                -14.629219055175781
            ]
        },
        {
            "extensions" : {
                "KHR_lights_punctual" : {
                    "light" : 3
                }
            },
            "name" : "Point.005_Orientation",
            "rotation" : [
                -0.7071067690849304,
                0,
                0,
                0.7071067690849304
            ]
        },
        {
            "children" : [
                12
            ],
            "name" : "Point.005",
            "translation" : [
                1.1237602233886719,
                4.585280418395996,
                -2.503042221069336
            ]
        },
        {
            "extensions" : {
                "KHR_lights_punctual" : {
                    "light" : 4
                }
            },
            "name" : "Point.009_Orientation",
            "rotation" : [
                -0.7071067690849304,
                0,
                0,
                0.7071067690849304
            ]
        },
        {
            "children" : [
                14
            ],
            "name" : "Point.009",
            "translation" : [
                4.274986267089844,
                0.8594569563865662,
                2.5817019939422607
            ]
        },
        {
            "extensions" : {
                "KHR_lights_punctual" : {
                    "light" : 5
                }
            },
            "name" : "Point.012_Orientation",
            "rotation" : [
                -0.7071067690849304,
                0,
                0,
                0.7071067690849304
            ]
        },
        {
            "children" : [
                16
            ],
            "name" : "Point.012",
            "translation" : [
                -5.616483688354492,
                5.014706134796143,
                2.4802515506744385
            ]
        },
        {
            "extensions" : {
                "KHR_lights_punctual" : {
                    "light" : 6
                }
            },
            "name" : "Point.013_Orientation",
            "rotation" : [
                -0.7071067690849304,
                0,
                0,
                0.7071067690849304
            ]
        },
        {
            "children" : [
                18
            ],
            "name" : "Point.013",
            "translation" : [
                -0.9180365800857544,
                4.089905738830566,
                10.353527069091797
            ]
        },
        {
            "extensions" : {
                "KHR_lights_punctual" : {
                    "light" : 7
                }
            },
            "name" : "Point.000_Orientation",
            "rotation" : [
                -0.7071067690849304,
                0,
                0,
                0.7071067690849304
            ]
        },
        {
            "children" : [
                20
            ],
            "name" : "Point.000",
            "translation" : [
                -1.4746267795562744,
                -1.556847095489502,
                1.524198293685913
            ]
        }
    ],
    "cameras" : [
        {
            "name" : "Camera",
            "perspective" : {
                "yfov" : 0.390943482515135,
                "zfar" : 100,
                "znear" : 0.10000000149011612
            },
            "type" : "perspective"
        }
    ],
    "animations" : [
        {
            "channels" : [
                {
                    "sampler" : 0,
                    "target" : {
                        "node" : 1,
                        "path" : "translation"
                    }
                },
                {
                    "sampler" : 1,
                    "target" : {
                        "node" : 1,
                        "path" : "rotation"
                    }
                },
                {
                    "sampler" : 2,
                    "target" : {
                        "node" : 1,
                        "path" : "scale"
                    }
                }
            ],
            "name" : "Action",
            "samplers" : [
                {
                    "input" : 12,
                    "interpolation" : "LINEAR",
                    "output" : 13
                },
                {
                    "input" : 12,
                    "interpolation" : "LINEAR",
                    "output" : 14
                },
                {
                    "input" : 12,
                    "interpolation" : "LINEAR",
                    "output" : 15
                }
            ]
        }
    ],
    "materials" : [
        {
            "doubleSided" : true,
            "name" : "blueish",
            "pbrMetallicRoughness" : {
                "baseColorFactor" : [
                    0.6417590379714966,
                    0.7779935002326965,
                    0.9403918385505676,
                    1
                ],
                "metallicFactor" : 0,
                "roughnessFactor" : 1
            }
        },
        {
            "doubleSided" : true,
            "name" : "Material.002",
            "pbrMetallicRoughness" : {
                "baseColorFactor" : [
                    0.800000011920929,
                    0.800000011920929,
                    0.800000011920929,
                    1
                ],
                "metallicFactor" : 0,
                "roughnessFactor" : 1
            }
        },
        {
            "doubleSided" : true,
            "name" : "Material.003",
            "pbrMetallicRoughness" : {
                "baseColorFactor" : [
                    0.8631575703620911,
                    0.8631571531295776,
                    0.863157331943512,
                    1
                ],
                "metallicFactor" : 0,
                "roughnessFactor" : 1
            }
        }
    ],
    "meshes" : [
        {
            "name" : "Cylinder.003",
            "primitives" : [
                {
                    "attributes" : {
                        "POSITION" : 0,
                        "NORMAL" : 1,
                        "TEXCOORD_0" : 2
                    },
                    "indices" : 3,
                    "material" : 0
                }
            ]
        },
        {
            "name" : "Plane.002",
            "primitives" : [
                {
                    "attributes" : {
                        "POSITION" : 4,
                        "NORMAL" : 5,
                        "TEXCOORD_0" : 6
                    },
                    "indices" : 7,
                    "material" : 1
                }
            ]
        },
        {
            "name" : "Cylinder.004",
            "primitives" : [
                {
                    "attributes" : {
                        "POSITION" : 8,
                        "NORMAL" : 9,
                        "TEXCOORD_0" : 10
                    },
                    "indices" : 11,
                    "material" : 2
                }
            ]
        }
    ],
    "accessors" : [
        {
            "bufferView" : 0,
            "componentType" : 5126,
            "count" : 1110,
            "max" : [
                0.9927088618278503,
                1,
                1
            ],
            "min" : [
                -0.9927089810371399,
                -0.8931318521499634,
                -1
            ],
            "type" : "VEC3"
        },
        {
            "bufferView" : 1,
            "componentType" : 5126,
            "count" : 1110,
            "type" : "VEC3"
        },
        {
            "bufferView" : 2,
            "componentType" : 5126,
            "count" : 1110,
            "type" : "VEC2"
        },
        {
            "bufferView" : 3,
            "componentType" : 5123,
            "count" : 4428,
            "type" : "SCALAR"
        },
        {
            "bufferView" : 4,
            "componentType" : 5126,
            "count" : 4,
            "max" : [
                1,
                0,
                1
            ],
            "min" : [
                -1,
                0,
                -1
            ],
            "type" : "VEC3"
        },
        {
            "bufferView" : 5,
            "componentType" : 5126,
            "count" : 4,
            "type" : "VEC3"
        },
        {
            "bufferView" : 6,
            "componentType" : 5126,
            "count" : 4,
            "type" : "VEC2"
        },
        {
            "bufferView" : 7,
            "componentType" : 5123,
            "count" : 6,
            "type" : "SCALAR"
        },
        {
            "bufferView" : 8,
            "componentType" : 5126,
            "count" : 1048,
            "max" : [
                1.29221510887146,
                1.1905035972595215,
                1.3509901762008667
            ],
            "min" : [
                -1.292215347290039,
                -1.0638315677642822,
                -1.3509902954101562
            ],
            "type" : "VEC3"
        },
        {
            "bufferView" : 9,
            "componentType" : 5126,
            "count" : 1048,
            "type" : "VEC3"
        },
        {
            "bufferView" : 10,
            "componentType" : 5126,
            "count" : 1048,
            "type" : "VEC2"
        },
        {
            "bufferView" : 11,
            "componentType" : 5123,
            "count" : 4116,
            "type" : "SCALAR"
        },
        {
            "bufferView" : 12,
            "componentType" : 5126,
            "count" : 140,
            "max" : [
                4.666666666666667
            ],
            "min" : [
                0.03333333333333333
            ],
            "type" : "SCALAR"
        },
        {
            "bufferView" : 13,
            "componentType" : 5126,
            "count" : 140,
            "type" : "VEC3"
        },
        {
            "bufferView" : 14,
            "componentType" : 5126,
            "count" : 140,
            "type" : "VEC4"
        },
        {
            "bufferView" : 15,
            "componentType" : 5126,
            "count" : 140,
            "type" : "VEC3"
        }
    ],
    "bufferViews" : [
        {
            "buffer" : 0,
            "byteLength" : 13320,
            "byteOffset" : 0
        },
        {
            "buffer" : 0,
            "byteLength" : 13320,
            "byteOffset" : 13320
        },
        {
            "buffer" : 0,
            "byteLength" : 8880,
            "byteOffset" : 26640
        },
        {
            "buffer" : 0,
            "byteLength" : 8856,
            "byteOffset" : 35520
        },
        {
            "buffer" : 0,
            "byteLength" : 48,
            "byteOffset" : 44376
        },
        {
            "buffer" : 0,
            "byteLength" : 48,
            "byteOffset" : 44424
        },
        {
            "buffer" : 0,
            "byteLength" : 32,
            "byteOffset" : 44472
        },
        {
            "buffer" : 0,
            "byteLength" : 12,
            "byteOffset" : 44504
        },
        {
            "buffer" : 0,
            "byteLength" : 12576,
            "byteOffset" : 44516
        },
        {
            "buffer" : 0,
            "byteLength" : 12576,
            "byteOffset" : 57092
        },
        {
            "buffer" : 0,
            "byteLength" : 8384,
            "byteOffset" : 69668
        },
        {
            "buffer" : 0,
            "byteLength" : 8232,
            "byteOffset" : 78052
        },
        {
            "buffer" : 0,
            "byteLength" : 560,
            "byteOffset" : 86284
        },
        {
            "buffer" : 0,
            "byteLength" : 1680,
            "byteOffset" : 86844
        },
        {
            "buffer" : 0,
            "byteLength" : 2240,
            "byteOffset" : 88524
        },
        {
            "buffer" : 0,
            "byteLength" : 1680,
            "byteOffset" : 90764
        }
    ],
    "buffers" : [
        {
            "byteLength" : 92444,
            "uri" : "home3.bin"
        }
    ]
}
