{
    "asset" : {
        "generator" : "Khronos glTF Blender I/O v0.9.36",
        "version" : "2.0"
    },
    "extensionsUsed" : [
        "KHR_lights_punctual"
    ],
    "extensionsRequired" : [
        "KHR_lights_punctual"
    ],
    "extensions" : {
        "KHR_lights_punctual" : {
            "lights" : [
                {
                    "color" : [
                        0.7953725457191467,
                        0.7601474523544312,
                        1
                    ],
                    "intensity" : 10000.900390625,
                    "type" : "point",
                    "name" : "light1.007"
                }
            ]
        }
    },
    "scene" : 0,
    "scenes" : [
        {
            "name" : "Scene",
            "nodes" : [
                1,
                2,
                3,
                4,
                6
            ]
        }
    ],
    "nodes" : [
        {
            "camera" : 0,
            "name" : "Camera_Orientation",
            "rotation" : [
                -0.7071067690849304,
                0,
                0,
                0.7071067690849304
            ]
        },
        {
            "children" : [
                0
            ],
            "name" : "Camera",
            "rotation" : [
                0.00032258202554658055,
                0,
                0,
                1
            ],
            "translation" : [
                0.08167523145675659,
                9.997551918029785,
                -0.012248202227056026
            ]
        },
        {
            "mesh" : 0,
            "name" : "Plane",
            "scale" : [
                22.75143814086914,
                10.71629810333252,
                13.184638977050781
            ],
            "translation" : [
                0,
                -0.6682076454162598,
                0
            ]
        },
        {
            "mesh" : 1,
            "name" : "Main",
            "translation" : [
                0,
                0.4085211157798767,
                0
            ]
        },
        {
            "mesh" : 2,
            "name" : "Main.001",
            "translation" : [
                -3.6913678646087646,
                0.38197946548461914,
                2.3365883827209473
            ]
        },
        {
            "extensions" : {
                "KHR_lights_punctual" : {
                    "light" : 0
                }
            },
            "name" : "Point.012_Orientation",
            "rotation" : [
                -0.7071067690849304,
                0,
                0,
                0.7071067690849304
            ]
        },
        {
            "children" : [
                5
            ],
            "name" : "Point.012",
            "translation" : [
                -5.616483688354492,
                5.014706134796143,
                2.4802515506744385
            ]
        }
    ],
    "cameras" : [
        {
            "name" : "Camera",
            "perspective" : {
                "yfov" : 0.390943482515135,
                "zfar" : 100,
                "znear" : 0.10000000149011612
            },
            "type" : "perspective"
        }
    ],
    "animations" : [
        {
            "channels" : [
                {
                    "sampler" : 0,
                    "target" : {
                        "node" : 1,
                        "path" : "translation"
                    }
                },
                {
                    "sampler" : 1,
                    "target" : {
                        "node" : 1,
                        "path" : "rotation"
                    }
                },
                {
                    "sampler" : 2,
                    "target" : {
                        "node" : 1,
                        "path" : "scale"
                    }
                }
            ],
            "name" : "Action",
            "samplers" : [
                {
                    "input" : 11,
                    "interpolation" : "LINEAR",
                    "output" : 12
                },
                {
                    "input" : 11,
                    "interpolation" : "LINEAR",
                    "output" : 13
                },
                {
                    "input" : 11,
                    "interpolation" : "LINEAR",
                    "output" : 14
                }
            ]
        }
    ],
    "materials" : [
        {
            "doubleSided" : true,
            "name" : "Material.002",
            "pbrMetallicRoughness" : {
                "baseColorFactor" : [
                    0.800000011920929,
                    0.800000011920929,
                    0.800000011920929,
                    1
                ],
                "metallicFactor" : 0,
                "roughnessFactor" : 1
            }
        },
        {
            "doubleSided" : true,
            "name" : "Material.003",
            "pbrMetallicRoughness" : {
                "baseColorFactor" : [
                    0.8631576299667358,
                    0.11527881026268005,
                    0.07566945254802704,
                    1
                ],
                "metallicFactor" : 0,
                "roughnessFactor" : 1
            }
        }
    ],
    "meshes" : [
        {
            "name" : "Plane.002",
            "primitives" : [
                {
                    "attributes" : {
                        "POSITION" : 0,
                        "NORMAL" : 1,
                        "TEXCOORD_0" : 2
                    },
                    "indices" : 3,
                    "material" : 0
                }
            ]
        },
        {
            "name" : "Cylinder.004",
            "primitives" : [
                {
                    "attributes" : {
                        "POSITION" : 4,
                        "NORMAL" : 5,
                        "TEXCOORD_0" : 6
                    },
                    "indices" : 7,
                    "material" : 1
                }
            ]
        },
        {
            "name" : "Cylinder.000",
            "primitives" : [
                {
                    "attributes" : {
                        "POSITION" : 8,
                        "NORMAL" : 9,
                        "TEXCOORD_0" : 10
                    },
                    "indices" : 7,
                    "material" : 1
                }
            ]
        }
    ],
    "accessors" : [
        {
            "bufferView" : 0,
            "componentType" : 5126,
            "count" : 4,
            "max" : [
                1,
                0,
                1
            ],
            "min" : [
                -1,
                0,
                -1
            ],
            "type" : "VEC3"
        },
        {
            "bufferView" : 1,
            "componentType" : 5126,
            "count" : 4,
            "type" : "VEC3"
        },
        {
            "bufferView" : 2,
            "componentType" : 5126,
            "count" : 4,
            "type" : "VEC2"
        },
        {
            "bufferView" : 3,
            "componentType" : 5123,
            "count" : 6,
            "type" : "SCALAR"
        },
        {
            "bufferView" : 4,
            "componentType" : 5126,
            "count" : 2678,
            "max" : [
                1.29221510887146,
                1.1905035972595215,
                1.3509901762008667
            ],
            "min" : [
                -1.292215347290039,
                -1.0638315677642822,
                -1.3509902954101562
            ],
            "type" : "VEC3"
        },
        {
            "bufferView" : 5,
            "componentType" : 5126,
            "count" : 2678,
            "type" : "VEC3"
        },
        {
            "bufferView" : 6,
            "componentType" : 5126,
            "count" : 2678,
            "type" : "VEC2"
        },
        {
            "bufferView" : 7,
            "componentType" : 5123,
            "count" : 4116,
            "type" : "SCALAR"
        },
        {
            "bufferView" : 8,
            "componentType" : 5126,
            "count" : 2678,
            "max" : [
                1.29221510887146,
                1.1905035972595215,
                1.3509901762008667
            ],
            "min" : [
                -1.292215347290039,
                -1.0638315677642822,
                -1.3509902954101562
            ],
            "type" : "VEC3"
        },
        {
            "bufferView" : 9,
            "componentType" : 5126,
            "count" : 2678,
            "type" : "VEC3"
        },
        {
            "bufferView" : 10,
            "componentType" : 5126,
            "count" : 2678,
            "type" : "VEC2"
        },
        {
            "bufferView" : 11,
            "componentType" : 5126,
            "count" : 140,
            "max" : [
                4.666666666666667
            ],
            "min" : [
                0.03333333333333333
            ],
            "type" : "SCALAR"
        },
        {
            "bufferView" : 12,
            "componentType" : 5126,
            "count" : 140,
            "type" : "VEC3"
        },
        {
            "bufferView" : 13,
            "componentType" : 5126,
            "count" : 140,
            "type" : "VEC4"
        },
        {
            "bufferView" : 14,
            "componentType" : 5126,
            "count" : 140,
            "type" : "VEC3"
        }
    ],
    "bufferViews" : [
        {
            "buffer" : 0,
            "byteLength" : 48,
            "byteOffset" : 0
        },
        {
            "buffer" : 0,
            "byteLength" : 48,
            "byteOffset" : 48
        },
        {
            "buffer" : 0,
            "byteLength" : 32,
            "byteOffset" : 96
        },
        {
            "buffer" : 0,
            "byteLength" : 12,
            "byteOffset" : 128
        },
        {
            "buffer" : 0,
            "byteLength" : 32136,
            "byteOffset" : 140
        },
        {
            "buffer" : 0,
            "byteLength" : 32136,
            "byteOffset" : 32276
        },
        {
            "buffer" : 0,
            "byteLength" : 21424,
            "byteOffset" : 64412
        },
        {
            "buffer" : 0,
            "byteLength" : 8232,
            "byteOffset" : 85836
        },
        {
            "buffer" : 0,
            "byteLength" : 32136,
            "byteOffset" : 94068
        },
        {
            "buffer" : 0,
            "byteLength" : 32136,
            "byteOffset" : 126204
        },
        {
            "buffer" : 0,
            "byteLength" : 21424,
            "byteOffset" : 158340
        },
        {
            "buffer" : 0,
            "byteLength" : 560,
            "byteOffset" : 179764
        },
        {
            "buffer" : 0,
            "byteLength" : 1680,
            "byteOffset" : 180324
        },
        {
            "buffer" : 0,
            "byteLength" : 2240,
            "byteOffset" : 182004
        },
        {
            "buffer" : 0,
            "byteLength" : 1680,
            "byteOffset" : 184244
        }
    ],
    "buffers" : [
        {
            "byteLength" : 185924,
            "uri" : "home4.glb.bin"
        }
    ]
}
