{
    "asset" : {
        "generator" : "Khronos glTF Blender I/O v0.9.36",
        "version" : "2.0"
    },
    "extensionsUsed" : [
        "KHR_lights_punctual"
    ],
    "extensionsRequired" : [
        "KHR_lights_punctual"
    ],
    "extensions" : {
        "KHR_lights_punctual" : {
            "lights" : [
                {
                    "color" : [
                        1,
                        0.7073364853858948,
                        0.9409390687942505
                    ],
                    "intensity" : 0.5400000214576721,
                    "type" : "directional",
                    "name" : "Sun"
                },
                {
                    "color" : [
                        0.6483429670333862,
                        0.6193591356277466,
                        1
                    ],
                    "intensity" : 0.5600000023841858,
                    "type" : "directional",
                    "name" : "Sun.001"
                },
                {
                    "color" : [
                        1,
                        0.8941043615341187,
                        0.9527133703231812
                    ],
                    "intensity" : 2.7899999618530273,
                    "type" : "directional",
                    "name" : "Sun.002"
                }
            ]
        }
    },
    "scene" : 0,
    "scenes" : [
        {
            "name" : "Scene",
            "nodes" : [
                1,
                2,
                3,
                5,
                7,
                9,
                10,
                11,
                12
            ]
        }
    ],
    "nodes" : [
        {
            "camera" : 0,
            "name" : "Camera_Orientation",
            "rotation" : [
                -0.7071067690849304,
                0,
                0,
                0.7071067690849304
            ]
        },
        {
            "children" : [
                0
            ],
            "name" : "Camera",
            "rotation" : [
                0.00032258202554658055,
                0,
                0,
                1
            ],
            "translation" : [
                0.08167523145675659,
                9.997551918029785,
                -0.012248202227056026
            ]
        },
        {
            "mesh" : 0,
            "name" : "Cylinder",
            "scale" : [
                1.3072837591171265,
                1.1914066076278687,
                1.3567790985107422
            ],
            "translation" : [
                -3.3398797512054443,
                0.4085211157798767,
                0
            ]
        },
        {
            "name" : "Empty",
            "rotation" : [
                0.7071067690849304,
                0,
                0,
                0.7071067690849304
            ],
            "translation" : [
                0,
                0,
                -0.20587611198425293
            ]
        },
        {
            "extensions" : {
                "KHR_lights_punctual" : {
                    "light" : 0
                }
            },
            "name" : "Sun_Orientation",
            "rotation" : [
                -0.7071067690849304,
                0,
                0,
                0.7071067690849304
            ]
        },
        {
            "children" : [
                4
            ],
            "name" : "Sun",
            "rotation" : [
                -0.889438271522522,
                -0.15674185752868652,
                0.4183259904384613,
                -0.09661713987588882
            ],
            "scale" : [
                -1.8399758338928223,
                -1.8399758338928223,
                -1.8399758338928223
            ],
            "translation" : [
                0,
                4.426513195037842,
                2.5444724559783936
            ]
        },
        {
            "extensions" : {
                "KHR_lights_punctual" : {
                    "light" : 1
                }
            },
            "name" : "Sun.001_Orientation",
            "rotation" : [
                -0.7071067690849304,
                0,
                0,
                0.7071067690849304
            ]
        },
        {
            "children" : [
                6
            ],
            "name" : "Sun.001",
            "rotation" : [
                -0.2997671663761139,
                0.28441694378852844,
                0.0699099451303482,
                -0.9079422950744629
            ],
            "scale" : [
                -1.8399758338928223,
                -1.8399758338928223,
                -1.8399758338928223
            ],
            "translation" : [
                -2.104973077774048,
                4.426513195037842,
                -2.888320207595825
            ]
        },
        {
            "extensions" : {
                "KHR_lights_punctual" : {
                    "light" : 2
                }
            },
            "name" : "Sun.002_Orientation",
            "rotation" : [
                -0.7071067690849304,
                0,
                0,
                0.7071067690849304
            ]
        },
        {
            "children" : [
                8
            ],
            "name" : "Sun.002",
            "rotation" : [
                0.9872506260871887,
                -0.11974924802780151,
                0.10410047322511673,
                -0.012626982294023037
            ],
            "scale" : [
                -1.8399758338928223,
                -1.8399758338928223,
                -1.8399758338928223
            ],
            "translation" : [
                1.008919358253479,
                4.386509895324707,
                -1.0116161108016968
            ]
        },
        {
            "name" : "SurfPatch",
            "rotation" : [
                1,
                0,
                0,
                -4.371138828673793e-08
            ],
            "translation" : [
                -1.6788034439086914,
                25.09579086303711,
                -5.34194278717041
            ]
        },
        {
            "mesh" : 1,
            "name" : "Plane",
            "scale" : [
                22.75143814086914,
                10.71629810333252,
                13.184638977050781
            ],
            "translation" : [
                0,
                -0.6682076454162598,
                0
            ]
        },
        {
            "mesh" : 2,
            "name" : "Main",
            "scale" : [
                1.3072837591171265,
                1.1914066076278687,
                1.3567790985107422
            ],
            "translation" : [
                0,
                0.4085211157798767,
                0
            ]
        }
    ],
    "cameras" : [
        {
            "name" : "Camera",
            "perspective" : {
                "yfov" : 0.390943482515135,
                "zfar" : 100,
                "znear" : 0.10000000149011612
            },
            "type" : "perspective"
        }
    ],
    "animations" : [
        {
            "channels" : [
                {
                    "sampler" : 0,
                    "target" : {
                        "node" : 1,
                        "path" : "translation"
                    }
                },
                {
                    "sampler" : 1,
                    "target" : {
                        "node" : 1,
                        "path" : "rotation"
                    }
                },
                {
                    "sampler" : 2,
                    "target" : {
                        "node" : 1,
                        "path" : "scale"
                    }
                }
            ],
            "name" : "Action",
            "samplers" : [
                {
                    "input" : 12,
                    "interpolation" : "LINEAR",
                    "output" : 13
                },
                {
                    "input" : 12,
                    "interpolation" : "LINEAR",
                    "output" : 14
                },
                {
                    "input" : 12,
                    "interpolation" : "LINEAR",
                    "output" : 15
                }
            ]
        }
    ],
    "materials" : [
        {
            "doubleSided" : true,
            "name" : "blueish",
            "pbrMetallicRoughness" : {
                "baseColorFactor" : [
                    0.3623397946357727,
                    0.5815184712409973,
                    0.8000000715255737,
                    1
                ],
                "metallicFactor" : 0,
                "roughnessFactor" : 0.5
            }
        },
        {
            "doubleSided" : true,
            "name" : "white",
            "pbrMetallicRoughness" : {
                "baseColorFactor" : [
                    0.6234272122383118,
                    0.6234273910522461,
                    0.6234273910522461,
                    1
                ],
                "metallicFactor" : 0.41379308700561523,
                "roughnessFactor" : 1
            }
        }
    ],
    "meshes" : [
        {
            "name" : "Cylinder.003",
            "primitives" : [
                {
                    "attributes" : {
                        "POSITION" : 0,
                        "NORMAL" : 1,
                        "TEXCOORD_0" : 2
                    },
                    "indices" : 3,
                    "material" : 0
                }
            ]
        },
        {
            "name" : "Plane.002",
            "primitives" : [
                {
                    "attributes" : {
                        "POSITION" : 4,
                        "NORMAL" : 5,
                        "TEXCOORD_0" : 6
                    },
                    "indices" : 7
                }
            ]
        },
        {
            "name" : "Cylinder.004",
            "primitives" : [
                {
                    "attributes" : {
                        "POSITION" : 8,
                        "NORMAL" : 9,
                        "TEXCOORD_0" : 10
                    },
                    "indices" : 11,
                    "material" : 1
                }
            ]
        }
    ],
    "accessors" : [
        {
            "bufferView" : 0,
            "componentType" : 5126,
            "count" : 1110,
            "max" : [
                0.9927088618278503,
                1,
                1
            ],
            "min" : [
                -0.9927089810371399,
                -0.8931318521499634,
                -1
            ],
            "type" : "VEC3"
        },
        {
            "bufferView" : 1,
            "componentType" : 5126,
            "count" : 1110,
            "type" : "VEC3"
        },
        {
            "bufferView" : 2,
            "componentType" : 5126,
            "count" : 1110,
            "type" : "VEC2"
        },
        {
            "bufferView" : 3,
            "componentType" : 5123,
            "count" : 4428,
            "type" : "SCALAR"
        },
        {
            "bufferView" : 4,
            "componentType" : 5126,
            "count" : 4,
            "max" : [
                1,
                0,
                1
            ],
            "min" : [
                -1,
                0,
                -1
            ],
            "type" : "VEC3"
        },
        {
            "bufferView" : 5,
            "componentType" : 5126,
            "count" : 4,
            "type" : "VEC3"
        },
        {
            "bufferView" : 6,
            "componentType" : 5126,
            "count" : 4,
            "type" : "VEC2"
        },
        {
            "bufferView" : 7,
            "componentType" : 5123,
            "count" : 6,
            "type" : "SCALAR"
        },
        {
            "bufferView" : 8,
            "componentType" : 5126,
            "count" : 1048,
            "max" : [
                0.9884732961654663,
                0.9992420077323914,
                0.995733380317688
            ],
            "min" : [
                -0.9884734153747559,
                -0.8929206132888794,
                -0.995733380317688
            ],
            "type" : "VEC3"
        },
        {
            "bufferView" : 9,
            "componentType" : 5126,
            "count" : 1048,
            "type" : "VEC3"
        },
        {
            "bufferView" : 10,
            "componentType" : 5126,
            "count" : 1048,
            "type" : "VEC2"
        },
        {
            "bufferView" : 11,
            "componentType" : 5123,
            "count" : 4116,
            "type" : "SCALAR"
        },
        {
            "bufferView" : 12,
            "componentType" : 5126,
            "count" : 140,
            "max" : [
                4.666666666666667
            ],
            "min" : [
                0.03333333333333333
            ],
            "type" : "SCALAR"
        },
        {
            "bufferView" : 13,
            "componentType" : 5126,
            "count" : 140,
            "type" : "VEC3"
        },
        {
            "bufferView" : 14,
            "componentType" : 5126,
            "count" : 140,
            "type" : "VEC4"
        },
        {
            "bufferView" : 15,
            "componentType" : 5126,
            "count" : 140,
            "type" : "VEC3"
        }
    ],
    "bufferViews" : [
        {
            "buffer" : 0,
            "byteLength" : 13320,
            "byteOffset" : 0
        },
        {
            "buffer" : 0,
            "byteLength" : 13320,
            "byteOffset" : 13320
        },
        {
            "buffer" : 0,
            "byteLength" : 8880,
            "byteOffset" : 26640
        },
        {
            "buffer" : 0,
            "byteLength" : 8856,
            "byteOffset" : 35520
        },
        {
            "buffer" : 0,
            "byteLength" : 48,
            "byteOffset" : 44376
        },
        {
            "buffer" : 0,
            "byteLength" : 48,
            "byteOffset" : 44424
        },
        {
            "buffer" : 0,
            "byteLength" : 32,
            "byteOffset" : 44472
        },
        {
            "buffer" : 0,
            "byteLength" : 12,
            "byteOffset" : 44504
        },
        {
            "buffer" : 0,
            "byteLength" : 12576,
            "byteOffset" : 44516
        },
        {
            "buffer" : 0,
            "byteLength" : 12576,
            "byteOffset" : 57092
        },
        {
            "buffer" : 0,
            "byteLength" : 8384,
            "byteOffset" : 69668
        },
        {
            "buffer" : 0,
            "byteLength" : 8232,
            "byteOffset" : 78052
        },
        {
            "buffer" : 0,
            "byteLength" : 560,
            "byteOffset" : 86284
        },
        {
            "buffer" : 0,
            "byteLength" : 1680,
            "byteOffset" : 86844
        },
        {
            "buffer" : 0,
            "byteLength" : 2240,
            "byteOffset" : 88524
        },
        {
            "buffer" : 0,
            "byteLength" : 1680,
            "byteOffset" : 90764
        }
    ],
    "buffers" : [
        {
            "byteLength" : 92444,
            "uri" : "home2.bin"
        }
    ]
}
