{
    "asset" : {
        "generator" : "Khronos glTF Blender I/O v0.9.36",
        "version" : "2.0"
    },
    "extensionsUsed" : [
        "KHR_lights_punctual"
    ],
    "extensionsRequired" : [
        "KHR_lights_punctual"
    ],
    "extensions" : {
        "KHR_lights_punctual" : {
            "lights" : [
                {
                    "color" : [
                        1,
                        1,
                        1
                    ],
                    "intensity" : 10,
                    "type" : "point",
                    "name" : "Sun.006"
                },
                {
                    "color" : [
                        1,
                        1,
                        1
                    ],
                    "intensity" : 8,
                    "type" : "point",
                    "name" : "Sun.007"
                },
                {
                    "color" : [
                        1,
                        1,
                        1
                    ],
                    "intensity" : 8,
                    "type" : "point",
                    "name" : "Sun.008"
                },
                {
                    "color" : [
                        1,
                        1,
                        1
                    ],
                    "intensity" : 20,
                    "spot" : {
                        "innerConeAngle" : 0,
                        "outerConeAngle" : 0.3525565266609192
                    },
                    "type" : "spot",
                    "name" : "Spot.004"
                },
                {
                    "color" : [
                        1,
                        1,
                        1
                    ],
                    "intensity" : 1,
                    "spot" : {
                        "innerConeAngle" : 0.3337942263919169,
                        "outerConeAngle" : 0.39269909262657166
                    },
                    "type" : "spot",
                    "name" : "Spot.005"
                }
            ]
        }
    },
    "scene" : 0,
    "scenes" : [
        {
            "name" : "Scene",
            "nodes" : [
                1,
                2,
                3,
                5,
                7,
                9,
                11,
                13
            ]
        }
    ],
    "nodes" : [
        {
            "camera" : 0,
            "name" : "Camera_Orientation",
            "rotation" : [
                -0.7071067690849304,
                0,
                0,
                0.7071067690849304
            ]
        },
        {
            "children" : [
                0
            ],
            "name" : "Camera",
            "rotation" : [
                0.012179777957499027,
                -0.001986286137253046,
                2.421820863673929e-05,
                0.999923825263977
            ],
            "translation" : [
                0.027219975367188454,
                1.010558009147644,
                0.017491526901721954
            ]
        },
        {
            "mesh" : 0,
            "name" : "Plane",
            "translation" : [
                0.06799983978271484,
                -0.046515390276908875,
                -0.11508645117282867
            ]
        },
        {
            "mesh" : 1,
            "name" : "Cube",
            "scale" : [
                1,
                0.4625420570373535,
                1
            ],
            "translation" : [
                0,
                0.0031875213608145714,
                0
            ]
        },
        {
            "extensions" : {
                "KHR_lights_punctual" : {
                    "light" : 0
                }
            },
            "name" : "Sun_Orientation",
            "rotation" : [
                -0.7071067690849304,
                0,
                0,
                0.7071067690849304
            ]
        },
        {
            "children" : [
                4
            ],
            "name" : "Sun",
            "scale" : [
                1,
                0.42042696475982666,
                1
            ],
            "translation" : [
                -0.9841885566711426,
                0.5802896618843079,
                -0.4056488871574402
            ]
        },
        {
            "extensions" : {
                "KHR_lights_punctual" : {
                    "light" : 1
                }
            },
            "name" : "Sun.001_Orientation",
            "rotation" : [
                -0.7071067690849304,
                0,
                0,
                0.7071067690849304
            ]
        },
        {
            "children" : [
                6
            ],
            "name" : "Sun.001",
            "scale" : [
                1,
                0.42042696475982666,
                1
            ],
            "translation" : [
                0.3859066963195801,
                0.35756435990333557,
                0.3331848084926605
            ]
        },
        {
            "extensions" : {
                "KHR_lights_punctual" : {
                    "light" : 2
                }
            },
            "name" : "Sun.002_Orientation",
            "rotation" : [
                -0.7071067690849304,
                0,
                0,
                0.7071067690849304
            ]
        },
        {
            "children" : [
                8
            ],
            "name" : "Sun.002",
            "scale" : [
                1,
                0.42042696475982666,
                1
            ],
            "translation" : [
                0.3365499973297119,
                0.5802896618843079,
                -0.6477842330932617
            ]
        },
        {
            "extensions" : {
                "KHR_lights_punctual" : {
                    "light" : 3
                }
            },
            "name" : "Spot_Orientation",
            "rotation" : [
                -0.7071067690849304,
                0,
                0,
                0.7071067690849304
            ]
        },
        {
            "children" : [
                10
            ],
            "name" : "Spot",
            "rotation" : [
                0.4837768077850342,
                0.0107209337875247,
                -0.03165866807103157,
                0.8745529055595398
            ],
            "translation" : [
                0.01550496369600296,
                0.6564419269561768,
                1.0610055923461914
            ]
        },
        {
            "extensions" : {
                "KHR_lights_punctual" : {
                    "light" : 4
                }
            },
            "name" : "Spot.001_Orientation",
            "rotation" : [
                -0.7071067690849304,
                0,
                0,
                0.7071067690849304
            ]
        },
        {
            "children" : [
                12
            ],
            "name" : "Spot.001",
            "rotation" : [
                0.07690374553203583,
                0.30379992723464966,
                -0.5187709927558899,
                0.7954043745994568
            ],
            "translation" : [
                1.140102744102478,
                0.6587814688682556,
                -0.22768527269363403
            ]
        }
    ],
    "cameras" : [
        {
            "name" : "Camera",
            "perspective" : {
                "yfov" : 0.39959648408210363,
                "zfar" : 100,
                "znear" : 0.10000000149011612
            },
            "type" : "perspective"
        }
    ],
    "animations" : [
        {
            "channels" : [
                {
                    "sampler" : 0,
                    "target" : {
                        "node" : 1,
                        "path" : "translation"
                    }
                },
                {
                    "sampler" : 1,
                    "target" : {
                        "node" : 1,
                        "path" : "rotation"
                    }
                },
                {
                    "sampler" : 2,
                    "target" : {
                        "node" : 1,
                        "path" : "scale"
                    }
                }
            ],
            "name" : "Action",
            "samplers" : [
                {
                    "input" : 19,
                    "interpolation" : "LINEAR",
                    "output" : 20
                },
                {
                    "input" : 19,
                    "interpolation" : "LINEAR",
                    "output" : 21
                },
                {
                    "input" : 19,
                    "interpolation" : "LINEAR",
                    "output" : 22
                }
            ]
        },
        {
            "channels" : [
                {
                    "sampler" : 0,
                    "target" : {
                        "node" : 3,
                        "path" : "translation"
                    }
                },
                {
                    "sampler" : 1,
                    "target" : {
                        "node" : 3,
                        "path" : "rotation"
                    }
                },
                {
                    "sampler" : 2,
                    "target" : {
                        "node" : 3,
                        "path" : "scale"
                    }
                }
            ],
            "name" : "CubeAction",
            "samplers" : [
                {
                    "input" : 23,
                    "interpolation" : "LINEAR",
                    "output" : 24
                },
                {
                    "input" : 23,
                    "interpolation" : "LINEAR",
                    "output" : 25
                },
                {
                    "input" : 23,
                    "interpolation" : "LINEAR",
                    "output" : 26
                }
            ]
        }
    ],
    "materials" : [
        {
            "doubleSided" : true,
            "name" : "Material.003",
            "pbrMetallicRoughness" : {
                "baseColorFactor" : [
                    1,
                    1,
                    1,
                    1
                ],
                "metallicFactor" : 0,
                "roughnessFactor" : 0.5
            }
        },
        {
            "doubleSided" : true,
            "name" : "Material",
            "pbrMetallicRoughness" : {
                "baseColorFactor" : [
                    0,
                    0,
                    0,
                    1
                ],
                "metallicFactor" : 0,
                "roughnessFactor" : 0.2590909004211426
            }
        },
        {
            "doubleSided" : true,
            "name" : "Material.002",
            "pbrMetallicRoughness" : {
                "baseColorFactor" : [
                    0,
                    0,
                    0,
                    1
                ],
                "metallicFactor" : 0,
                "roughnessFactor" : 0.4909090995788574
            }
        },
        {
            "doubleSided" : true,
            "name" : "Material.001",
            "pbrMetallicRoughness" : {
                "baseColorFactor" : [
                    0.8000000715255737,
                    0.1832936555147171,
                    0,
                    1
                ],
                "metallicFactor" : 0.7181820273399353,
                "roughnessFactor" : 0.5454545021057129
            }
        }
    ],
    "meshes" : [
        {
            "name" : "Plane",
            "primitives" : [
                {
                    "attributes" : {
                        "POSITION" : 0,
                        "NORMAL" : 1,
                        "TEXCOORD_0" : 2
                    },
                    "indices" : 3,
                    "material" : 0
                }
            ]
        },
        {
            "name" : "Cube",
            "primitives" : [
                {
                    "attributes" : {
                        "POSITION" : 4,
                        "NORMAL" : 5,
                        "TEXCOORD_0" : 6
                    },
                    "indices" : 7,
                    "material" : 1
                },
                {
                    "attributes" : {
                        "POSITION" : 8,
                        "NORMAL" : 9,
                        "TEXCOORD_0" : 10
                    },
                    "indices" : 11,
                    "material" : 2
                },
                {
                    "attributes" : {
                        "POSITION" : 12,
                        "NORMAL" : 13,
                        "TEXCOORD_0" : 14
                    },
                    "indices" : 15,
                    "material" : 3
                },
                {
                    "attributes" : {
                        "POSITION" : 16,
                        "NORMAL" : 17,
                        "TEXCOORD_0" : 18
                    },
                    "indices" : 3
                }
            ]
        }
    ],
    "accessors" : [
        {
            "bufferView" : 0,
            "componentType" : 5126,
            "count" : 4,
            "max" : [
                1,
                0,
                1
            ],
            "min" : [
                -1,
                0,
                -1
            ],
            "type" : "VEC3"
        },
        {
            "bufferView" : 1,
            "componentType" : 5126,
            "count" : 4,
            "type" : "VEC3"
        },
        {
            "bufferView" : 2,
            "componentType" : 5126,
            "count" : 4,
            "type" : "VEC2"
        },
        {
            "bufferView" : 3,
            "componentType" : 5123,
            "count" : 6,
            "type" : "SCALAR"
        },
        {
            "bufferView" : 4,
            "componentType" : 5126,
            "count" : 902,
            "max" : [
                0.06800000369548798,
                0.00800000037997961,
                0.14900000393390656
            ],
            "min" : [
                -0.06800000369548798,
                -0.00800000037997961,
                -0.14900000393390656
            ],
            "type" : "VEC3"
        },
        {
            "bufferView" : 5,
            "componentType" : 5126,
            "count" : 902,
            "type" : "VEC3"
        },
        {
            "bufferView" : 6,
            "componentType" : 5126,
            "count" : 902,
            "type" : "VEC2"
        },
        {
            "bufferView" : 7,
            "componentType" : 5123,
            "count" : 3498,
            "type" : "SCALAR"
        },
        {
            "bufferView" : 8,
            "componentType" : 5126,
            "count" : 39,
            "max" : [
                0.060618724673986435,
                0.00800000037997961,
                0.14900000393390656
            ],
            "min" : [
                -0.060618724673986435,
                -0.001962592825293541,
                -0.1416187286376953
            ],
            "type" : "VEC3"
        },
        {
            "bufferView" : 9,
            "componentType" : 5126,
            "count" : 39,
            "type" : "VEC3"
        },
        {
            "bufferView" : 10,
            "componentType" : 5126,
            "count" : 39,
            "type" : "VEC2"
        },
        {
            "bufferView" : 11,
            "componentType" : 5123,
            "count" : 108,
            "type" : "SCALAR"
        },
        {
            "bufferView" : 12,
            "componentType" : 5126,
            "count" : 32,
            "max" : [
                0.06588777899742126,
                -0.00800000037997961,
                0.14688777923583984
            ],
            "min" : [
                -0.06588777899742126,
                -0.00800000037997961,
                -0.14688777923583984
            ],
            "type" : "VEC3"
        },
        {
            "bufferView" : 13,
            "componentType" : 5126,
            "count" : 32,
            "type" : "VEC3"
        },
        {
            "bufferView" : 14,
            "componentType" : 5126,
            "count" : 32,
            "type" : "VEC2"
        },
        {
            "bufferView" : 15,
            "componentType" : 5123,
            "count" : 90,
            "type" : "SCALAR"
        },
        {
            "bufferView" : 16,
            "componentType" : 5126,
            "count" : 4,
            "max" : [
                0.06046958267688751,
                0.008318827487528324,
                0.14156003296375275
            ],
            "min" : [
                -0.061989717185497284,
                0.008318827487528324,
                -0.1422366052865982
            ],
            "type" : "VEC3"
        },
        {
            "bufferView" : 17,
            "componentType" : 5126,
            "count" : 4,
            "type" : "VEC3"
        },
        {
            "bufferView" : 18,
            "componentType" : 5126,
            "count" : 4,
            "type" : "VEC2"
        },
        {
            "bufferView" : 19,
            "componentType" : 5126,
            "count" : 250,
            "max" : [
                10.416666666666666
            ],
            "min" : [
                0.041666666666666664
            ],
            "type" : "SCALAR"
        },
        {
            "bufferView" : 20,
            "componentType" : 5126,
            "count" : 250,
            "type" : "VEC3"
        },
        {
            "bufferView" : 21,
            "componentType" : 5126,
            "count" : 250,
            "type" : "VEC4"
        },
        {
            "bufferView" : 22,
            "componentType" : 5126,
            "count" : 250,
            "type" : "VEC3"
        },
        {
            "bufferView" : 23,
            "componentType" : 5126,
            "count" : 100,
            "max" : [
                4.166666666666667
            ],
            "min" : [
                0.041666666666666664
            ],
            "type" : "SCALAR"
        },
        {
            "bufferView" : 24,
            "componentType" : 5126,
            "count" : 100,
            "type" : "VEC3"
        },
        {
            "bufferView" : 25,
            "componentType" : 5126,
            "count" : 100,
            "type" : "VEC4"
        },
        {
            "bufferView" : 26,
            "componentType" : 5126,
            "count" : 100,
            "type" : "VEC3"
        }
    ],
    "bufferViews" : [
        {
            "buffer" : 0,
            "byteLength" : 48,
            "byteOffset" : 0
        },
        {
            "buffer" : 0,
            "byteLength" : 48,
            "byteOffset" : 48
        },
        {
            "buffer" : 0,
            "byteLength" : 32,
            "byteOffset" : 96
        },
        {
            "buffer" : 0,
            "byteLength" : 12,
            "byteOffset" : 128
        },
        {
            "buffer" : 0,
            "byteLength" : 10824,
            "byteOffset" : 140
        },
        {
            "buffer" : 0,
            "byteLength" : 10824,
            "byteOffset" : 10964
        },
        {
            "buffer" : 0,
            "byteLength" : 7216,
            "byteOffset" : 21788
        },
        {
            "buffer" : 0,
            "byteLength" : 6996,
            "byteOffset" : 29004
        },
        {
            "buffer" : 0,
            "byteLength" : 468,
            "byteOffset" : 36000
        },
        {
            "buffer" : 0,
            "byteLength" : 468,
            "byteOffset" : 36468
        },
        {
            "buffer" : 0,
            "byteLength" : 312,
            "byteOffset" : 36936
        },
        {
            "buffer" : 0,
            "byteLength" : 216,
            "byteOffset" : 37248
        },
        {
            "buffer" : 0,
            "byteLength" : 384,
            "byteOffset" : 37464
        },
        {
            "buffer" : 0,
            "byteLength" : 384,
            "byteOffset" : 37848
        },
        {
            "buffer" : 0,
            "byteLength" : 256,
            "byteOffset" : 38232
        },
        {
            "buffer" : 0,
            "byteLength" : 180,
            "byteOffset" : 38488
        },
        {
            "buffer" : 0,
            "byteLength" : 48,
            "byteOffset" : 38668
        },
        {
            "buffer" : 0,
            "byteLength" : 48,
            "byteOffset" : 38716
        },
        {
            "buffer" : 0,
            "byteLength" : 32,
            "byteOffset" : 38764
        },
        {
            "buffer" : 0,
            "byteLength" : 1000,
            "byteOffset" : 38796
        },
        {
            "buffer" : 0,
            "byteLength" : 3000,
            "byteOffset" : 39796
        },
        {
            "buffer" : 0,
            "byteLength" : 4000,
            "byteOffset" : 42796
        },
        {
            "buffer" : 0,
            "byteLength" : 3000,
            "byteOffset" : 46796
        },
        {
            "buffer" : 0,
            "byteLength" : 400,
            "byteOffset" : 49796
        },
        {
            "buffer" : 0,
            "byteLength" : 1200,
            "byteOffset" : 50196
        },
        {
            "buffer" : 0,
            "byteLength" : 1600,
            "byteOffset" : 51396
        },
        {
            "buffer" : 0,
            "byteLength" : 1200,
            "byteOffset" : 52996
        }
    ],
    "buffers" : [
        {
            "byteLength" : 54196,
            "uri" : "phone.glb.bin"
        }
    ]
}
