{
    "asset" : {
        "generator" : "Khronos glTF Blender I/O v1.0.5",
        "version" : "2.0"
    },
    "extensionsUsed" : [
        "KHR_lights_punctual"
    ],
    "extensionsRequired" : [
        "KHR_lights_punctual"
    ],
    "extensions" : {
        "KHR_lights_punctual" : {
            "lights" : [
                {
                    "color" : [
                        1,
                        0.6797518730163574,
                        0.3502700626850128
                    ],
                    "intensity" : 1,
                    "type" : "directional",
                    "name" : "Sun.001"
                },
                {
                    "color" : [
                        1,
                        1,
                        1
                    ],
                    "intensity" : 3000,
                    "spot" : {
                        "innerConeAngle" : 0.591915108583148,
                        "outerConeAngle" : 0.6963707208633423
                    },
                    "type" : "spot",
                    "name" : "Spot"
                }
            ]
        }
    },
    "scene" : 0,
    "scenes" : [
        {
            "name" : "Scene",
            "nodes" : [
                1,
                3,
                4,
                5,
                6,
                8
            ]
        }
    ],
    "nodes" : [
        {
            "extensions" : {
                "KHR_lights_punctual" : {
                    "light" : 0
                }
            },
            "name" : "Sun_Orientation",
            "rotation" : [
                -0.7071067690849304,
                0,
                0,
                0.7071067690849304
            ]
        },
        {
            "children" : [
                0
            ],
            "name" : "Sun",
            "translation" : [
                -10.58608627319336,
                7.790434837341309,
                2.945358991622925
            ]
        },
        {
            "camera" : 0,
            "name" : "Camera_Orientation",
            "rotation" : [
                -0.7071067690849304,
                0,
                0,
                0.7071067690849304
            ]
        },
        {
            "children" : [
                2
            ],
            "name" : "Camera",
            "rotation" : [
                -0.03381573408842087,
                0.5139308571815491,
                0.02028059773147106,
                0.8569248914718628
            ],
            "translation" : [
                -0.20659519731998444,
                2.9753005504608154,
                -0.03424389660358429
            ]
        },
        {
            "mesh" : 0,
            "name" : "Plane",
            "translation" : [
                -0.461759090423584,
                -1.1762681007385254,
                -0.31438976526260376
            ]
        },
        {
            "mesh" : 1,
            "name" : "Plane.001",
            "translation" : [
                -0.461759090423584,
                -1.1762681007385254,
                -0.31438976526260376
            ]
        },
        {
            "mesh" : 2,
            "name" : "Plane.002",
            "scale" : [
                2.576503038406372,
                1,
                2.576503038406372
            ],
            "translation" : [
                3.041294813156128,
                -1.1762681007385254,
                -0.40657541155815125
            ]
        },
        {
            "extensions" : {
                "KHR_lights_punctual" : {
                    "light" : 1
                }
            },
            "name" : "Spot_Orientation",
            "rotation" : [
                -0.7071067690849304,
                0,
                0,
                0.7071067690849304
            ]
        },
        {
            "children" : [
                7
            ],
            "name" : "Spot",
            "rotation" : [
                -0.15991435945034027,
                -0.04557284340262413,
                0.2643805742263794,
                0.9499754905700684
            ],
            "translation" : [
                -11.8859281539917,
                9.175178527832031,
                -5.465380668640137
            ]
        }
    ],
    "cameras" : [
        {
            "name" : "Camera",
            "perspective" : {
                "yfov" : 0.390943482515135,
                "zfar" : 100,
                "znear" : 0.10000000149011612
            },
            "type" : "perspective"
        }
    ],
    "animations" : [
        {
            "channels" : [
                {
                    "sampler" : 0,
                    "target" : {
                        "node" : 3,
                        "path" : "translation"
                    }
                },
                {
                    "sampler" : 1,
                    "target" : {
                        "node" : 3,
                        "path" : "rotation"
                    }
                },
                {
                    "sampler" : 2,
                    "target" : {
                        "node" : 3,
                        "path" : "scale"
                    }
                }
            ],
            "name" : "Action.002",
            "samplers" : [
                {
                    "input" : 13,
                    "interpolation" : "LINEAR",
                    "output" : 14
                },
                {
                    "input" : 13,
                    "interpolation" : "LINEAR",
                    "output" : 15
                },
                {
                    "input" : 13,
                    "interpolation" : "LINEAR",
                    "output" : 16
                }
            ]
        }
    ],
    "materials" : [
        {
            "doubleSided" : true,
            "emissiveFactor" : [
                1,
                1,
                1
            ],
            "emissiveTexture" : {
                "index" : 0,
                "texCoord" : 0
            },
            "name" : "white.001",
            "pbrMetallicRoughness" : {
                "baseColorFactor" : [
                    0.9120253324508667,
                    0.9120248556137085,
                    0.9120248556137085,
                    1
                ],
                "metallicFactor" : 0.17548280954360962,
                "roughnessFactor" : 1
            }
        },
        {
            "doubleSided" : true,
            "emissiveFactor" : [
                1,
                1,
                1
            ],
            "emissiveTexture" : {
                "index" : 1,
                "texCoord" : 0
            },
            "name" : "purple",
            "pbrMetallicRoughness" : {
                "baseColorFactor" : [
                    0.800000011920929,
                    0.800000011920929,
                    0.800000011920929,
                    1
                ],
                "metallicFactor" : 0,
                "roughnessFactor" : 0.5
            }
        },
        {
            "doubleSided" : true,
            "emissiveFactor" : [
                1,
                1,
                1
            ],
            "emissiveTexture" : {
                "index" : 2,
                "texCoord" : 0
            },
            "name" : "ground",
            "pbrMetallicRoughness" : {
                "baseColorFactor" : [
                    1,
                    1,
                    1,
                    1
                ],
                "metallicFactor" : 0,
                "roughnessFactor" : 0.6818181872367859
            }
        }
    ],
    "meshes" : [
        {
            "name" : "Plane.002",
            "primitives" : [
                {
                    "attributes" : {
                        "POSITION" : 0,
                        "NORMAL" : 1,
                        "TEXCOORD_0" : 2
                    },
                    "indices" : 3,
                    "material" : 0
                }
            ]
        },
        {
            "name" : "Plane.003",
            "primitives" : [
                {
                    "attributes" : {
                        "POSITION" : 4,
                        "NORMAL" : 5,
                        "TEXCOORD_0" : 6
                    },
                    "indices" : 7,
                    "material" : 1
                }
            ]
        },
        {
            "name" : "Plane.004",
            "primitives" : [
                {
                    "attributes" : {
                        "POSITION" : 8,
                        "NORMAL" : 9,
                        "TANGENT" : 10,
                        "TEXCOORD_0" : 11
                    },
                    "indices" : 12,
                    "material" : 2
                }
            ]
        }
    ],
    "textures" : [
        {
            "source" : 0
        },
        {
            "source" : 1
        },
        {
            "source" : 2
        }
    ],
    "images" : [
        {
            "mimeType" : "image/jpeg",
            "name" : "s-white",
            "uri" : "s-white.jpg"
        },
        {
            "mimeType" : "image/jpeg",
            "name" : "s-purple5",
            "uri" : "s-purple5.jpg"
        },
        {
            "mimeType" : "image/jpeg",
            "name" : "s-ground2",
            "uri" : "s-ground2.jpg"
        }
    ],
    "accessors" : [
        {
            "bufferView" : 0,
            "componentType" : 5126,
            "count" : 2886,
            "max" : [
                0.7195155620574951,
                0.6665422916412354,
                0.7324211597442627
            ],
            "min" : [
                -0.07409408688545227,
                -0.04089212790131569,
                -0.09728464484214783
            ],
            "type" : "VEC3"
        },
        {
            "bufferView" : 1,
            "componentType" : 5126,
            "count" : 2886,
            "type" : "VEC3"
        },
        {
            "bufferView" : 2,
            "componentType" : 5126,
            "count" : 2886,
            "type" : "VEC2"
        },
        {
            "bufferView" : 3,
            "componentType" : 5123,
            "count" : 4428,
            "type" : "SCALAR"
        },
        {
            "bufferView" : 4,
            "componentType" : 5126,
            "count" : 2886,
            "max" : [
                -0.6551704406738281,
                0.7180633544921875,
                -0.22532594203948975
            ],
            "min" : [
                -1.4484176635742188,
                0.010674364864826202,
                -1.0546526908874512
            ],
            "type" : "VEC3"
        },
        {
            "bufferView" : 5,
            "componentType" : 5126,
            "count" : 2886,
            "type" : "VEC3"
        },
        {
            "bufferView" : 6,
            "componentType" : 5126,
            "count" : 2886,
            "type" : "VEC2"
        },
        {
            "bufferView" : 7,
            "componentType" : 5123,
            "count" : 4428,
            "type" : "SCALAR"
        },
        {
            "bufferView" : 8,
            "componentType" : 5126,
            "count" : 4,
            "max" : [
                1.8246073722839355,
                -0.002280724700540304,
                2.984246253967285
            ],
            "min" : [
                -4.038306713104248,
                -0.10201690346002579,
                -2.8332784175872803
            ],
            "type" : "VEC3"
        },
        {
            "bufferView" : 9,
            "componentType" : 5126,
            "count" : 4,
            "type" : "VEC3"
        },
        {
            "bufferView" : 10,
            "componentType" : 5126,
            "count" : 4,
            "type" : "VEC4"
        },
        {
            "bufferView" : 11,
            "componentType" : 5126,
            "count" : 4,
            "type" : "VEC2"
        },
        {
            "bufferView" : 12,
            "componentType" : 5123,
            "count" : 6,
            "type" : "SCALAR"
        },
        {
            "bufferView" : 13,
            "componentType" : 5126,
            "count" : 140,
            "max" : [
                4.666666666666667
            ],
            "min" : [
                0.03333333333333333
            ],
            "type" : "SCALAR"
        },
        {
            "bufferView" : 14,
            "componentType" : 5126,
            "count" : 140,
            "type" : "VEC3"
        },
        {
            "bufferView" : 15,
            "componentType" : 5126,
            "count" : 140,
            "type" : "VEC4"
        },
        {
            "bufferView" : 16,
            "componentType" : 5126,
            "count" : 140,
            "type" : "VEC3"
        }
    ],
    "bufferViews" : [
        {
            "buffer" : 0,
            "byteLength" : 34632,
            "byteOffset" : 0
        },
        {
            "buffer" : 0,
            "byteLength" : 34632,
            "byteOffset" : 34632
        },
        {
            "buffer" : 0,
            "byteLength" : 23088,
            "byteOffset" : 69264
        },
        {
            "buffer" : 0,
            "byteLength" : 8856,
            "byteOffset" : 92352
        },
        {
            "buffer" : 0,
            "byteLength" : 34632,
            "byteOffset" : 101208
        },
        {
            "buffer" : 0,
            "byteLength" : 34632,
            "byteOffset" : 135840
        },
        {
            "buffer" : 0,
            "byteLength" : 23088,
            "byteOffset" : 170472
        },
        {
            "buffer" : 0,
            "byteLength" : 8856,
            "byteOffset" : 193560
        },
        {
            "buffer" : 0,
            "byteLength" : 48,
            "byteOffset" : 202416
        },
        {
            "buffer" : 0,
            "byteLength" : 48,
            "byteOffset" : 202464
        },
        {
            "buffer" : 0,
            "byteLength" : 64,
            "byteOffset" : 202512
        },
        {
            "buffer" : 0,
            "byteLength" : 32,
            "byteOffset" : 202576
        },
        {
            "buffer" : 0,
            "byteLength" : 12,
            "byteOffset" : 202608
        },
        {
            "buffer" : 0,
            "byteLength" : 560,
            "byteOffset" : 202620
        },
        {
            "buffer" : 0,
            "byteLength" : 1680,
            "byteOffset" : 203180
        },
        {
            "buffer" : 0,
            "byteLength" : 2240,
            "byteOffset" : 204860
        },
        {
            "buffer" : 0,
            "byteLength" : 1680,
            "byteOffset" : 207100
        }
    ],
    "buffers" : [
        {
            "byteLength" : 208780,
            "uri" : "demo4.bin"
        }
    ]
}
