{
    "asset" : {
        "generator" : "Khronos glTF Blender I/O v0.9.36",
        "version" : "2.0"
    },
    "extensionsUsed" : [
        "KHR_lights_punctual"
    ],
    "extensionsRequired" : [
        "KHR_lights_punctual"
    ],
    "extensions" : {
        "KHR_lights_punctual" : {
            "lights" : [
                {
                    "color" : [
                        1,
                        1,
                        1
                    ],
                    "intensity" : 1000,
                    "type" : "point",
                    "name" : "light1.002"
                },
                {
                    "color" : [
                        1,
                        1,
                        1
                    ],
                    "intensity" : 0.800000011920929,
                    "type" : "directional",
                    "name" : "Sun"
                }
            ]
        }
    },
    "scene" : 0,
    "scenes" : [
        {
            "name" : "Scene",
            "nodes" : [
                1,
                2,
                3,
                5,
                7
            ]
        }
    ],
    "nodes" : [
        {
            "camera" : 0,
            "name" : "Camera_Orientation",
            "rotation" : [
                -0.7071067690849304,
                0,
                0,
                0.7071067690849304
            ]
        },
        {
            "children" : [
                0
            ],
            "name" : "Camera",
            "rotation" : [
                0.00032258202554658055,
                0,
                0,
                1
            ],
            "translation" : [
                0.08167523145675659,
                9.997551918029785,
                -0.012248202227056026
            ]
        },
        {
            "mesh" : 0,
            "name" : "Cylinder",
            "scale" : [
                1.3072837591171265,
                1.1914066076278687,
                1.3567790985107422
            ],
            "translation" : [
                -3.3398797512054443,
                0.42775797843933105,
                -2.032229423522949
            ]
        },
        {
            "mesh" : 1,
            "name" : "Plane",
            "scale" : [
                6.066163063049316,
                6.647451877593994,
                9.34117317199707
            ],
            "translation" : [
                0,
                -0.6682076454162598,
                0
            ]
        },
        {
            "extensions" : {
                "KHR_lights_punctual" : {
                    "light" : 0
                }
            },
            "name" : "Point.002_Orientation",
            "rotation" : [
                -0.7071067690849304,
                0,
                0,
                0.7071067690849304
            ]
        },
        {
            "children" : [
                4
            ],
            "name" : "Point.002",
            "translation" : [
                -2.4443230628967285,
                5.178097724914551,
                0.5545763969421387
            ]
        },
        {
            "extensions" : {
                "KHR_lights_punctual" : {
                    "light" : 1
                }
            },
            "name" : "Sun_Orientation",
            "rotation" : [
                -0.7071067690849304,
                0,
                0,
                0.7071067690849304
            ]
        },
        {
            "children" : [
                6
            ],
            "name" : "Sun",
            "rotation" : [
                0.047640666365623474,
                0,
                0.02025872841477394,
                0.998659074306488
            ],
            "translation" : [
                1.1361684799194336,
                6.832460403442383,
                -2.615356922149658
            ]
        }
    ],
    "cameras" : [
        {
            "name" : "Camera",
            "perspective" : {
                "yfov" : 0.390943482515135,
                "zfar" : 100,
                "znear" : 0.10000000149011612
            },
            "type" : "perspective"
        }
    ],
    "animations" : [
        {
            "channels" : [
                {
                    "sampler" : 0,
                    "target" : {
                        "node" : 1,
                        "path" : "translation"
                    }
                },
                {
                    "sampler" : 1,
                    "target" : {
                        "node" : 1,
                        "path" : "rotation"
                    }
                },
                {
                    "sampler" : 2,
                    "target" : {
                        "node" : 1,
                        "path" : "scale"
                    }
                }
            ],
            "name" : "Action",
            "samplers" : [
                {
                    "input" : 13,
                    "interpolation" : "LINEAR",
                    "output" : 14
                },
                {
                    "input" : 13,
                    "interpolation" : "LINEAR",
                    "output" : 15
                },
                {
                    "input" : 13,
                    "interpolation" : "LINEAR",
                    "output" : 16
                }
            ]
        }
    ],
    "materials" : [
        {
            "doubleSided" : true,
            "name" : "blue",
            "pbrMetallicRoughness" : {
                "baseColorTexture" : {
                    "index" : 0,
                    "texCoord" : 0
                },
                "metallicFactor" : 0.3863636255264282,
                "roughnessFactor" : 0.3454545736312866
            }
        },
        {
            "doubleSided" : true,
            "name" : "white.001",
            "pbrMetallicRoughness" : {
                "baseColorTexture" : {
                    "index" : 1,
                    "texCoord" : 0
                },
                "metallicFactor" : 0,
                "roughnessFactor" : 1
            }
        },
        {
            "doubleSided" : true,
            "name" : "ground",
            "pbrMetallicRoughness" : {
                "baseColorTexture" : {
                    "index" : 2,
                    "texCoord" : 0
                },
                "metallicFactor" : 0,
                "roughnessFactor" : 1
            }
        }
    ],
    "meshes" : [
        {
            "name" : "Cylinder.003",
            "primitives" : [
                {
                    "attributes" : {
                        "POSITION" : 0,
                        "NORMAL" : 1,
                        "TEXCOORD_0" : 2
                    },
                    "indices" : 3,
                    "material" : 0
                },
                {
                    "attributes" : {
                        "POSITION" : 4,
                        "NORMAL" : 5,
                        "TEXCOORD_0" : 6
                    },
                    "indices" : 7,
                    "material" : 1
                }
            ]
        },
        {
            "name" : "Plane.002",
            "primitives" : [
                {
                    "attributes" : {
                        "POSITION" : 8,
                        "NORMAL" : 9,
                        "TANGENT" : 10,
                        "TEXCOORD_0" : 11
                    },
                    "indices" : 12,
                    "material" : 2
                }
            ]
        }
    ],
    "textures" : [
        {
            "source" : 0
        },
        {
            "source" : 0
        },
        {
            "source" : 1
        }
    ],
    "images" : [
        {
            "mimeType" : "image/png",
            "name" : "HomeBake",
            "uri" : "HomeBake.png"
        },
        {
            "mimeType" : "image/png",
            "name" : "ground-shadow",
            "uri" : "ground-shadow.png"
        }
    ],
    "accessors" : [
        {
            "bufferView" : 0,
            "componentType" : 5126,
            "count" : 2886,
            "max" : [
                0.9927088618278503,
                1,
                1
            ],
            "min" : [
                -0.9927089810371399,
                -0.8931318521499634,
                -1
            ],
            "type" : "VEC3"
        },
        {
            "bufferView" : 1,
            "componentType" : 5126,
            "count" : 2886,
            "type" : "VEC3"
        },
        {
            "bufferView" : 2,
            "componentType" : 5126,
            "count" : 2886,
            "type" : "VEC2"
        },
        {
            "bufferView" : 3,
            "componentType" : 5123,
            "count" : 4428,
            "type" : "SCALAR"
        },
        {
            "bufferView" : 4,
            "componentType" : 5126,
            "count" : 2678,
            "max" : [
                3.543297290802002,
                0.983095645904541,
                2.4935669898986816
            ],
            "min" : [
                1.5663504600524902,
                -0.9090669751167297,
                0.5021001696586609
            ],
            "type" : "VEC3"
        },
        {
            "bufferView" : 5,
            "componentType" : 5126,
            "count" : 2678,
            "type" : "VEC3"
        },
        {
            "bufferView" : 6,
            "componentType" : 5126,
            "count" : 2678,
            "type" : "VEC2"
        },
        {
            "bufferView" : 7,
            "componentType" : 5123,
            "count" : 4116,
            "type" : "SCALAR"
        },
        {
            "bufferView" : 8,
            "componentType" : 5126,
            "count" : 4,
            "max" : [
                1,
                0,
                1
            ],
            "min" : [
                -1,
                0,
                -1
            ],
            "type" : "VEC3"
        },
        {
            "bufferView" : 9,
            "componentType" : 5126,
            "count" : 4,
            "type" : "VEC3"
        },
        {
            "bufferView" : 10,
            "componentType" : 5126,
            "count" : 4,
            "type" : "VEC4"
        },
        {
            "bufferView" : 11,
            "componentType" : 5126,
            "count" : 4,
            "type" : "VEC2"
        },
        {
            "bufferView" : 12,
            "componentType" : 5123,
            "count" : 6,
            "type" : "SCALAR"
        },
        {
            "bufferView" : 13,
            "componentType" : 5126,
            "count" : 140,
            "max" : [
                4.666666666666667
            ],
            "min" : [
                0.03333333333333333
            ],
            "type" : "SCALAR"
        },
        {
            "bufferView" : 14,
            "componentType" : 5126,
            "count" : 140,
            "type" : "VEC3"
        },
        {
            "bufferView" : 15,
            "componentType" : 5126,
            "count" : 140,
            "type" : "VEC4"
        },
        {
            "bufferView" : 16,
            "componentType" : 5126,
            "count" : 140,
            "type" : "VEC3"
        }
    ],
    "bufferViews" : [
        {
            "buffer" : 0,
            "byteLength" : 34632,
            "byteOffset" : 0
        },
        {
            "buffer" : 0,
            "byteLength" : 34632,
            "byteOffset" : 34632
        },
        {
            "buffer" : 0,
            "byteLength" : 23088,
            "byteOffset" : 69264
        },
        {
            "buffer" : 0,
            "byteLength" : 8856,
            "byteOffset" : 92352
        },
        {
            "buffer" : 0,
            "byteLength" : 32136,
            "byteOffset" : 101208
        },
        {
            "buffer" : 0,
            "byteLength" : 32136,
            "byteOffset" : 133344
        },
        {
            "buffer" : 0,
            "byteLength" : 21424,
            "byteOffset" : 165480
        },
        {
            "buffer" : 0,
            "byteLength" : 8232,
            "byteOffset" : 186904
        },
        {
            "buffer" : 0,
            "byteLength" : 48,
            "byteOffset" : 195136
        },
        {
            "buffer" : 0,
            "byteLength" : 48,
            "byteOffset" : 195184
        },
        {
            "buffer" : 0,
            "byteLength" : 64,
            "byteOffset" : 195232
        },
        {
            "buffer" : 0,
            "byteLength" : 32,
            "byteOffset" : 195296
        },
        {
            "buffer" : 0,
            "byteLength" : 12,
            "byteOffset" : 195328
        },
        {
            "buffer" : 0,
            "byteLength" : 560,
            "byteOffset" : 195340
        },
        {
            "buffer" : 0,
            "byteLength" : 1680,
            "byteOffset" : 195900
        },
        {
            "buffer" : 0,
            "byteLength" : 2240,
            "byteOffset" : 197580
        },
        {
            "buffer" : 0,
            "byteLength" : 1680,
            "byteOffset" : 199820
        }
    ],
    "buffers" : [
        {
            "byteLength" : 201500,
            "uri" : "demo.bin"
        }
    ]
}
