{
    "asset" : {
        "generator" : "Khronos glTF Blender I/O v0.9.36",
        "version" : "2.0"
    },
    "extensionsUsed" : [
        "KHR_lights_punctual"
    ],
    "extensionsRequired" : [
        "KHR_lights_punctual"
    ],
    "extensions" : {
        "KHR_lights_punctual" : {
            "lights" : [
                {
                    "color" : [
                        1,
                        1,
                        1
                    ],
                    "intensity" : 2000,
                    "type" : "point",
                    "name" : "Light"
                }
            ]
        }
    },
    "scene" : 0,
    "scenes" : [
        {
            "name" : "Scene",
            "nodes" : [
                1,
                3,
                8
            ]
        }
    ],
    "nodes" : [
        {
            "extensions" : {
                "KHR_lights_punctual" : {
                    "light" : 0
                }
            },
            "name" : "Light_Orientation",
            "rotation" : [
                -0.7071067690849304,
                0,
                0,
                0.7071067690849304
            ]
        },
        {
            "children" : [
                0
            ],
            "name" : "Light",
            "rotation" : [
                0.16907575726509094,
                0.7558803558349609,
                -0.27217137813568115,
                0.570947527885437
            ],
            "translation" : [
                2.4574155807495117,
                5.160577774047852,
                5.130478858947754
            ]
        },
        {
            "camera" : 0,
            "name" : "Camera_Orientation",
            "rotation" : [
                -0.7071067690849304,
                0,
                0,
                0.7071067690849304
            ]
        },
        {
            "children" : [
                2
            ],
            "name" : "Camera",
            "rotation" : [
                0.48641031980514526,
                0.3259121775627136,
                -0.20191383361816406,
                0.7851223349571228
            ],
            "translation" : [
                7.162471294403076,
                4.958310604095459,
                7.128406047821045
            ]
        },
        {
            "mesh" : 0,
            "name" : "Cylinder",
            "rotation" : [
                0,
                -0.24644190073013306,
                0,
                0.9691575765609741
            ],
            "translation" : [
                -0.16278299689292908,
                0.5272608995437622,
                0.38376274704933167
            ]
        },
        {
            "mesh" : 1,
            "name" : "Cylinder.001",
            "rotation" : [
                0.07554906606674194,
                0.16206616163253784,
                0.9073129892349243,
                0.38053926825523376
            ],
            "translation" : [
                -0.3810248374938965,
                0.467791885137558,
                0.4993133842945099
            ]
        },
        {
            "mesh" : 2,
            "name" : "text-marker1",
            "rotation" : [
                0,
                -0.24644190073013306,
                0,
                0.9691575765609741
            ],
            "translation" : [
                -0.8875359296798706,
                1.1399317979812622,
                0.869331955909729
            ]
        },
        {
            "mesh" : 3,
            "name" : "text-marker2",
            "rotation" : [
                0,
                0.07740240544080734,
                0,
                0.9969999194145203
            ],
            "scale" : [
                0.09773385524749756,
                0.09773384779691696,
                0.09773385524749756
            ],
            "translation" : [
                -1.2066665887832642,
                0.8223620653152466,
                1.0962830781936646
            ]
        },
        {
            "children" : [
                4,
                5,
                6,
                7
            ],
            "mesh" : 4,
            "name" : "Sphere",
            "rotation" : [
                0,
                -0.24585680663585663,
                0,
                -0.9693061709403992
            ]
        }
    ],
    "cameras" : [
        {
            "name" : "Camera",
            "perspective" : {
                "yfov" : 0.39959648408210363,
                "zfar" : 100,
                "znear" : 0.10000000149011612
            },
            "type" : "perspective"
        }
    ],
    "animations" : [
        {
            "channels" : [
                {
                    "sampler" : 0,
                    "target" : {
                        "node" : 7,
                        "path" : "translation"
                    }
                },
                {
                    "sampler" : 1,
                    "target" : {
                        "node" : 7,
                        "path" : "rotation"
                    }
                },
                {
                    "sampler" : 2,
                    "target" : {
                        "node" : 7,
                        "path" : "scale"
                    }
                }
            ],
            "name" : "text-marker2Action.001",
            "samplers" : [
                {
                    "input" : 22,
                    "interpolation" : "STEP",
                    "output" : 23
                },
                {
                    "input" : 24,
                    "interpolation" : "LINEAR",
                    "output" : 25
                },
                {
                    "input" : 22,
                    "interpolation" : "STEP",
                    "output" : 26
                }
            ]
        },
        {
            "channels" : [
                {
                    "sampler" : 0,
                    "target" : {
                        "node" : 3,
                        "path" : "rotation"
                    }
                },
                {
                    "sampler" : 1,
                    "target" : {
                        "node" : 3,
                        "path" : "translation"
                    }
                }
            ],
            "name" : "CameraAction",
            "samplers" : [
                {
                    "input" : 27,
                    "interpolation" : "LINEAR",
                    "output" : 28
                },
                {
                    "input" : 27,
                    "interpolation" : "LINEAR",
                    "output" : 29
                }
            ]
        },
        {
            "channels" : [
                {
                    "sampler" : 0,
                    "target" : {
                        "node" : 8,
                        "path" : "translation"
                    }
                },
                {
                    "sampler" : 1,
                    "target" : {
                        "node" : 8,
                        "path" : "rotation"
                    }
                },
                {
                    "sampler" : 2,
                    "target" : {
                        "node" : 8,
                        "path" : "scale"
                    }
                }
            ],
            "name" : "SphereAction.001",
            "samplers" : [
                {
                    "input" : 30,
                    "interpolation" : "LINEAR",
                    "output" : 31
                },
                {
                    "input" : 30,
                    "interpolation" : "LINEAR",
                    "output" : 32
                },
                {
                    "input" : 22,
                    "interpolation" : "STEP",
                    "output" : 33
                }
            ]
        }
    ],
    "materials" : [
        {
            "doubleSided" : true,
            "name" : "Material.004",
            "pbrMetallicRoughness" : {
                "baseColorFactor" : [
                    0.10211427509784698,
                    0.797330379486084,
                    1,
                    1
                ],
                "metallicFactor" : 0.5181818008422852,
                "roughnessFactor" : 0.22272728383541107
            }
        },
        {
            "doubleSided" : true,
            "name" : "TransparentCube",
            "pbrMetallicRoughness" : {
                "baseColorFactor" : [
                    0.800000011920929,
                    0.800000011920929,
                    0.800000011920929,
                    1
                ],
                "metallicFactor" : 0,
                "roughnessFactor" : 0.5
            }
        },
        {
            "doubleSided" : true,
            "name" : "Material.001",
            "normalTexture" : {
                "index" : 0,
                "texCoord" : 0
            },
            "pbrMetallicRoughness" : {
                "baseColorTexture" : {
                    "index" : 1,
                    "texCoord" : 0
                },
                "metallicFactor" : 0,
                "roughnessFactor" : 0.3734440207481384
            }
        }
    ],
    "meshes" : [
        {
            "name" : "Cylinder",
            "primitives" : [
                {
                    "attributes" : {
                        "POSITION" : 0,
                        "NORMAL" : 1,
                        "TEXCOORD_0" : 2
                    },
                    "indices" : 3,
                    "material" : 0
                }
            ]
        },
        {
            "name" : "Cylinder.001",
            "primitives" : [
                {
                    "attributes" : {
                        "POSITION" : 4,
                        "NORMAL" : 5,
                        "TEXCOORD_0" : 6
                    },
                    "indices" : 7,
                    "material" : 0
                }
            ]
        },
        {
            "name" : "Cube.001",
            "primitives" : [
                {
                    "attributes" : {
                        "POSITION" : 8,
                        "NORMAL" : 9,
                        "TANGENT" : 10,
                        "TEXCOORD_0" : 11
                    },
                    "indices" : 12,
                    "material" : 1
                }
            ]
        },
        {
            "name" : "Cube",
            "primitives" : [
                {
                    "attributes" : {
                        "POSITION" : 13,
                        "NORMAL" : 14,
                        "TANGENT" : 15,
                        "TEXCOORD_0" : 16
                    },
                    "indices" : 12
                }
            ]
        },
        {
            "name" : "Sphere",
            "primitives" : [
                {
                    "attributes" : {
                        "POSITION" : 17,
                        "NORMAL" : 18,
                        "TANGENT" : 19,
                        "TEXCOORD_0" : 20
                    },
                    "indices" : 21,
                    "material" : 2
                }
            ]
        }
    ],
    "textures" : [
        {
            "source" : 0
        },
        {
            "source" : 1
        }
    ],
    "images" : [
        {
            "mimeType" : "image/png",
            "name" : "NormalMap4",
            "uri" : "NormalMap4.png"
        },
        {
            "mimeType" : "image/jpeg",
            "name" : "lroc_color_poles_1k",
            "uri" : "lroc_color_poles_1k.jpg"
        }
    ],
    "accessors" : [
        {
            "bufferView" : 0,
            "componentType" : 5126,
            "count" : 192,
            "max" : [
                0.36550331115722656,
                0.5703161358833313,
                0.7323986291885376
            ],
            "min" : [
                -0.36550331115722656,
                -0.5703161358833313,
                -0.7323986291885376
            ],
            "type" : "VEC3"
        },
        {
            "bufferView" : 1,
            "componentType" : 5126,
            "count" : 192,
            "type" : "VEC3"
        },
        {
            "bufferView" : 2,
            "componentType" : 5126,
            "count" : 192,
            "type" : "VEC2"
        },
        {
            "bufferView" : 3,
            "componentType" : 5123,
            "count" : 372,
            "type" : "SCALAR"
        },
        {
            "bufferView" : 4,
            "componentType" : 5126,
            "count" : 192,
            "max" : [
                0.7629716396331787,
                0.4833430051803589,
                0.42362403869628906
            ],
            "min" : [
                -0.7629716396331787,
                -0.4833430051803589,
                -0.42362403869628906
            ],
            "type" : "VEC3"
        },
        {
            "bufferView" : 5,
            "componentType" : 5126,
            "count" : 192,
            "type" : "VEC3"
        },
        {
            "bufferView" : 6,
            "componentType" : 5126,
            "count" : 192,
            "type" : "VEC2"
        },
        {
            "bufferView" : 7,
            "componentType" : 5123,
            "count" : 372,
            "type" : "SCALAR"
        },
        {
            "bufferView" : 8,
            "componentType" : 5126,
            "count" : 24,
            "max" : [
                0.09929007291793823,
                0.09929007291793823,
                0.09929007291793823
            ],
            "min" : [
                -0.09929007291793823,
                -0.09929007291793823,
                -0.09929007291793823
            ],
            "type" : "VEC3"
        },
        {
            "bufferView" : 9,
            "componentType" : 5126,
            "count" : 24,
            "type" : "VEC3"
        },
        {
            "bufferView" : 10,
            "componentType" : 5126,
            "count" : 24,
            "type" : "VEC4"
        },
        {
            "bufferView" : 11,
            "componentType" : 5126,
            "count" : 24,
            "type" : "VEC2"
        },
        {
            "bufferView" : 12,
            "componentType" : 5123,
            "count" : 36,
            "type" : "SCALAR"
        },
        {
            "bufferView" : 13,
            "componentType" : 5126,
            "count" : 24,
            "max" : [
                1,
                1,
                1
            ],
            "min" : [
                -1,
                -1,
                -1
            ],
            "type" : "VEC3"
        },
        {
            "bufferView" : 14,
            "componentType" : 5126,
            "count" : 24,
            "type" : "VEC3"
        },
        {
            "bufferView" : 15,
            "componentType" : 5126,
            "count" : 24,
            "type" : "VEC4"
        },
        {
            "bufferView" : 16,
            "componentType" : 5126,
            "count" : 24,
            "type" : "VEC2"
        },
        {
            "bufferView" : 17,
            "componentType" : 5126,
            "count" : 2143,
            "max" : [
                1.0000005960464478,
                1,
                1.000001072883606
            ],
            "min" : [
                -1.000000238418579,
                -1,
                -1
            ],
            "type" : "VEC3"
        },
        {
            "bufferView" : 18,
            "componentType" : 5126,
            "count" : 2143,
            "type" : "VEC3"
        },
        {
            "bufferView" : 19,
            "componentType" : 5126,
            "count" : 2143,
            "type" : "VEC4"
        },
        {
            "bufferView" : 20,
            "componentType" : 5126,
            "count" : 2143,
            "type" : "VEC2"
        },
        {
            "bufferView" : 21,
            "componentType" : 5123,
            "count" : 11904,
            "type" : "SCALAR"
        },
        {
            "bufferView" : 22,
            "componentType" : 5126,
            "count" : 1,
            "max" : [
                0
            ],
            "min" : [
                0
            ],
            "type" : "SCALAR"
        },
        {
            "bufferView" : 23,
            "componentType" : 5126,
            "count" : 1,
            "type" : "VEC3"
        },
        {
            "bufferView" : 24,
            "componentType" : 5126,
            "count" : 111,
            "max" : [
                4.583333333333333
            ],
            "min" : [
                0
            ],
            "type" : "SCALAR"
        },
        {
            "bufferView" : 25,
            "componentType" : 5126,
            "count" : 111,
            "type" : "VEC4"
        },
        {
            "bufferView" : 26,
            "componentType" : 5126,
            "count" : 1,
            "type" : "VEC3"
        },
        {
            "bufferView" : 27,
            "componentType" : 5126,
            "count" : 109,
            "max" : [
                4.541666666666667
            ],
            "min" : [
                0.041666666666666664
            ],
            "type" : "SCALAR"
        },
        {
            "bufferView" : 28,
            "componentType" : 5126,
            "count" : 109,
            "type" : "VEC4"
        },
        {
            "bufferView" : 29,
            "componentType" : 5126,
            "count" : 109,
            "type" : "VEC3"
        },
        {
            "bufferView" : 30,
            "componentType" : 5126,
            "count" : 101,
            "max" : [
                4.166666666666667
            ],
            "min" : [
                0
            ],
            "type" : "SCALAR"
        },
        {
            "bufferView" : 31,
            "componentType" : 5126,
            "count" : 101,
            "type" : "VEC3"
        },
        {
            "bufferView" : 32,
            "componentType" : 5126,
            "count" : 101,
            "type" : "VEC4"
        },
        {
            "bufferView" : 33,
            "componentType" : 5126,
            "count" : 1,
            "type" : "VEC3"
        }
    ],
    "bufferViews" : [
        {
            "buffer" : 0,
            "byteLength" : 2304,
            "byteOffset" : 0
        },
        {
            "buffer" : 0,
            "byteLength" : 2304,
            "byteOffset" : 2304
        },
        {
            "buffer" : 0,
            "byteLength" : 1536,
            "byteOffset" : 4608
        },
        {
            "buffer" : 0,
            "byteLength" : 744,
            "byteOffset" : 6144
        },
        {
            "buffer" : 0,
            "byteLength" : 2304,
            "byteOffset" : 6888
        },
        {
            "buffer" : 0,
            "byteLength" : 2304,
            "byteOffset" : 9192
        },
        {
            "buffer" : 0,
            "byteLength" : 1536,
            "byteOffset" : 11496
        },
        {
            "buffer" : 0,
            "byteLength" : 744,
            "byteOffset" : 13032
        },
        {
            "buffer" : 0,
            "byteLength" : 288,
            "byteOffset" : 13776
        },
        {
            "buffer" : 0,
            "byteLength" : 288,
            "byteOffset" : 14064
        },
        {
            "buffer" : 0,
            "byteLength" : 384,
            "byteOffset" : 14352
        },
        {
            "buffer" : 0,
            "byteLength" : 192,
            "byteOffset" : 14736
        },
        {
            "buffer" : 0,
            "byteLength" : 72,
            "byteOffset" : 14928
        },
        {
            "buffer" : 0,
            "byteLength" : 288,
            "byteOffset" : 15000
        },
        {
            "buffer" : 0,
            "byteLength" : 288,
            "byteOffset" : 15288
        },
        {
            "buffer" : 0,
            "byteLength" : 384,
            "byteOffset" : 15576
        },
        {
            "buffer" : 0,
            "byteLength" : 192,
            "byteOffset" : 15960
        },
        {
            "buffer" : 0,
            "byteLength" : 25716,
            "byteOffset" : 16152
        },
        {
            "buffer" : 0,
            "byteLength" : 25716,
            "byteOffset" : 41868
        },
        {
            "buffer" : 0,
            "byteLength" : 34288,
            "byteOffset" : 67584
        },
        {
            "buffer" : 0,
            "byteLength" : 17144,
            "byteOffset" : 101872
        },
        {
            "buffer" : 0,
            "byteLength" : 23808,
            "byteOffset" : 119016
        },
        {
            "buffer" : 0,
            "byteLength" : 4,
            "byteOffset" : 142824
        },
        {
            "buffer" : 0,
            "byteLength" : 12,
            "byteOffset" : 142828
        },
        {
            "buffer" : 0,
            "byteLength" : 444,
            "byteOffset" : 142840
        },
        {
            "buffer" : 0,
            "byteLength" : 1776,
            "byteOffset" : 143284
        },
        {
            "buffer" : 0,
            "byteLength" : 12,
            "byteOffset" : 145060
        },
        {
            "buffer" : 0,
            "byteLength" : 436,
            "byteOffset" : 145072
        },
        {
            "buffer" : 0,
            "byteLength" : 1744,
            "byteOffset" : 145508
        },
        {
            "buffer" : 0,
            "byteLength" : 1308,
            "byteOffset" : 147252
        },
        {
            "buffer" : 0,
            "byteLength" : 404,
            "byteOffset" : 148560
        },
        {
            "buffer" : 0,
            "byteLength" : 1212,
            "byteOffset" : 148964
        },
        {
            "buffer" : 0,
            "byteLength" : 1616,
            "byteOffset" : 150176
        },
        {
            "buffer" : 0,
            "byteLength" : 12,
            "byteOffset" : 151792
        }
    ],
    "buffers" : [
        {
            "byteLength" : 151804,
            "uri" : "moon1.bin"
        }
    ]
}
