{
    "asset" : {
        "generator" : "Khronos glTF Blender I/O v0.9.36",
        "version" : "2.0"
    },
    "extensionsUsed" : [
        "KHR_lights_punctual"
    ],
    "extensionsRequired" : [
        "KHR_lights_punctual"
    ],
    "extensions" : {
        "KHR_lights_punctual" : {
            "lights" : [
                {
                    "color" : [
                        1,
                        1,
                        1
                    ],
                    "intensity" : 2000,
                    "type" : "point",
                    "name" : "Light"
                }
            ]
        }
    },
    "scene" : 0,
    "scenes" : [
        {
            "name" : "Scene",
            "nodes" : [
                1,
                3,
                4
            ]
        }
    ],
    "nodes" : [
        {
            "extensions" : {
                "KHR_lights_punctual" : {
                    "light" : 0
                }
            },
            "name" : "Light_Orientation",
            "rotation" : [
                -0.7071067690849304,
                0,
                0,
                0.7071067690849304
            ]
        },
        {
            "children" : [
                0
            ],
            "name" : "Light",
            "rotation" : [
                0.16907575726509094,
                0.7558803558349609,
                -0.27217137813568115,
                0.570947527885437
            ],
            "translation" : [
                2.4574155807495117,
                5.160577774047852,
                5.130478858947754
            ]
        },
        {
            "camera" : 0,
            "name" : "Camera_Orientation",
            "rotation" : [
                -0.7071067690849304,
                0,
                0,
                0.7071067690849304
            ]
        },
        {
            "children" : [
                2
            ],
            "name" : "Camera",
            "rotation" : [
                0.48641031980514526,
                0.3259121775627136,
                -0.20191383361816406,
                0.7851223349571228
            ],
            "translation" : [
                7.162471294403076,
                4.958310604095459,
                7.128406047821045
            ]
        },
        {
            "mesh" : 0,
            "name" : "Sphere",
            "rotation" : [
                0,
                -0.24585680663585663,
                0,
                -0.9693061709403992
            ]
        }
    ],
    "cameras" : [
        {
            "name" : "Camera",
            "perspective" : {
                "yfov" : 0.39959648408210363,
                "zfar" : 100,
                "znear" : 0.10000000149011612
            },
            "type" : "perspective"
        }
    ],
    "animations" : [
        {
            "channels" : [
                {
                    "sampler" : 0,
                    "target" : {
                        "node" : 3,
                        "path" : "rotation"
                    }
                },
                {
                    "sampler" : 1,
                    "target" : {
                        "node" : 3,
                        "path" : "translation"
                    }
                }
            ],
            "name" : "CameraAction",
            "samplers" : [
                {
                    "input" : 5,
                    "interpolation" : "LINEAR",
                    "output" : 6
                },
                {
                    "input" : 5,
                    "interpolation" : "LINEAR",
                    "output" : 7
                }
            ]
        },
        {
            "channels" : [
                {
                    "sampler" : 0,
                    "target" : {
                        "node" : 4,
                        "path" : "translation"
                    }
                },
                {
                    "sampler" : 1,
                    "target" : {
                        "node" : 4,
                        "path" : "rotation"
                    }
                },
                {
                    "sampler" : 2,
                    "target" : {
                        "node" : 4,
                        "path" : "scale"
                    }
                }
            ],
            "name" : "SphereAction.001",
            "samplers" : [
                {
                    "input" : 8,
                    "interpolation" : "LINEAR",
                    "output" : 9
                },
                {
                    "input" : 8,
                    "interpolation" : "LINEAR",
                    "output" : 10
                },
                {
                    "input" : 11,
                    "interpolation" : "LINEAR",
                    "output" : 12
                }
            ]
        }
    ],
    "materials" : [
        {
            "doubleSided" : true,
            "name" : "Material.001",
            "normalTexture" : {
                "index" : 0,
                "texCoord" : 0
            },
            "pbrMetallicRoughness" : {
                "baseColorTexture" : {
                    "index" : 1,
                    "texCoord" : 0
                },
                "metallicFactor" : 0,
                "roughnessFactor" : 0.3734440207481384
            }
        }
    ],
    "meshes" : [
        {
            "name" : "Sphere",
            "primitives" : [
                {
                    "attributes" : {
                        "POSITION" : 0,
                        "NORMAL" : 1,
                        "TANGENT" : 2,
                        "TEXCOORD_0" : 3
                    },
                    "indices" : 4,
                    "material" : 0
                }
            ]
        }
    ],
    "textures" : [
        {
            "source" : 0
        },
        {
            "source" : 1
        }
    ],
    "images" : [
        {
            "mimeType" : "image/png",
            "name" : "NormalMap4",
            "uri" : "NormalMap4.png"
        },
        {
            "mimeType" : "image/jpeg",
            "name" : "lroc_color_poles_1k",
            "uri" : "lroc_color_poles_1k.jpg"
        }
    ],
    "accessors" : [
        {
            "bufferView" : 0,
            "componentType" : 5126,
            "count" : 2143,
            "max" : [
                1.0000005960464478,
                1,
                1.000001072883606
            ],
            "min" : [
                -1.000000238418579,
                -1,
                -1
            ],
            "type" : "VEC3"
        },
        {
            "bufferView" : 1,
            "componentType" : 5126,
            "count" : 2143,
            "type" : "VEC3"
        },
        {
            "bufferView" : 2,
            "componentType" : 5126,
            "count" : 2143,
            "type" : "VEC4"
        },
        {
            "bufferView" : 3,
            "componentType" : 5126,
            "count" : 2143,
            "type" : "VEC2"
        },
        {
            "bufferView" : 4,
            "componentType" : 5123,
            "count" : 11904,
            "type" : "SCALAR"
        },
        {
            "bufferView" : 5,
            "componentType" : 5126,
            "count" : 109,
            "max" : [
                4.541666666666667
            ],
            "min" : [
                0.041666666666666664
            ],
            "type" : "SCALAR"
        },
        {
            "bufferView" : 6,
            "componentType" : 5126,
            "count" : 109,
            "type" : "VEC4"
        },
        {
            "bufferView" : 7,
            "componentType" : 5126,
            "count" : 109,
            "type" : "VEC3"
        },
        {
            "bufferView" : 8,
            "componentType" : 5126,
            "count" : 101,
            "max" : [
                4.166666666666667
            ],
            "min" : [
                0
            ],
            "type" : "SCALAR"
        },
        {
            "bufferView" : 9,
            "componentType" : 5126,
            "count" : 101,
            "type" : "VEC3"
        },
        {
            "bufferView" : 10,
            "componentType" : 5126,
            "count" : 101,
            "type" : "VEC4"
        },
        {
            "bufferView" : 11,
            "componentType" : 5126,
            "count" : 91,
            "max" : [
                3.75
            ],
            "min" : [
                0
            ],
            "type" : "SCALAR"
        },
        {
            "bufferView" : 12,
            "componentType" : 5126,
            "count" : 91,
            "type" : "VEC3"
        }
    ],
    "bufferViews" : [
        {
            "buffer" : 0,
            "byteLength" : 25716,
            "byteOffset" : 0
        },
        {
            "buffer" : 0,
            "byteLength" : 25716,
            "byteOffset" : 25716
        },
        {
            "buffer" : 0,
            "byteLength" : 34288,
            "byteOffset" : 51432
        },
        {
            "buffer" : 0,
            "byteLength" : 17144,
            "byteOffset" : 85720
        },
        {
            "buffer" : 0,
            "byteLength" : 23808,
            "byteOffset" : 102864
        },
        {
            "buffer" : 0,
            "byteLength" : 436,
            "byteOffset" : 126672
        },
        {
            "buffer" : 0,
            "byteLength" : 1744,
            "byteOffset" : 127108
        },
        {
            "buffer" : 0,
            "byteLength" : 1308,
            "byteOffset" : 128852
        },
        {
            "buffer" : 0,
            "byteLength" : 404,
            "byteOffset" : 130160
        },
        {
            "buffer" : 0,
            "byteLength" : 1212,
            "byteOffset" : 130564
        },
        {
            "buffer" : 0,
            "byteLength" : 1616,
            "byteOffset" : 131776
        },
        {
            "buffer" : 0,
            "byteLength" : 364,
            "byteOffset" : 133392
        },
        {
            "buffer" : 0,
            "byteLength" : 1092,
            "byteOffset" : 133756
        }
    ],
    "buffers" : [
        {
            "byteLength" : 134848,
            "uri" : "moon1.bin"
        }
    ]
}
