{
    "asset" : {
        "generator" : "Khronos glTF Blender I/O v1.1.18",
        "version" : "2.0"
    },
    "scene" : 0,
    "scenes" : [
        {
            "extras" : {
                "glTF2ExportSettings" : {
                    "export_all_influences" : 0,
                    "export_animations" : 1,
                    "export_apply" : 0,
                    "export_cameras" : 1,
                    "export_colors" : 1,
                    "export_copyright" : "",
                    "export_current_frame" : 0,
                    "export_def_bones" : 0,
                    "export_displacement" : 0,
                    "export_draco_mesh_compression_enable" : 0,
                    "export_draco_mesh_compression_level" : 6,
                    "export_draco_normal_quantization" : 10,
                    "export_draco_position_quantization" : 14,
                    "export_draco_texcoord_quantization" : 12,
                    "export_extras" : 1,
                    "export_force_sampling" : 1,
                    "export_format" : "GLTF_SEPARATE",
                    "export_frame_range" : 1,
                    "export_frame_step" : 1,
                    "export_image_format" : "JPEG",
                    "export_lights" : 1,
                    "export_materials" : 1,
                    "export_morph" : 1,
                    "export_morph_normal" : 1,
                    "export_morph_tangent" : 0,
                    "export_nla_strips" : 1,
                    "export_normals" : 1,
                    "export_selected" : 1,
                    "export_skins" : 1,
                    "export_tangents" : 0,
                    "export_texcoords" : 1,
                    "export_yup" : 1
                }
            },
            "name" : "Scene",
            "nodes" : [
                1,
                2,
                3,
                4,
                5
            ]
        }
    ],
    "nodes" : [
        {
            "camera" : 0,
            "name" : "Camera_Orientation",
            "rotation" : [
                -0.7071067690849304,
                0,
                0,
                0.7071067690849304
            ]
        },
        {
            "children" : [
                0
            ],
            "name" : "Camera",
            "translation" : [
                0,
                2.4476799964904785,
                0
            ]
        },
        {
            "mesh" : 0,
            "name" : "random3"
        },
        {
            "mesh" : 1,
            "name" : "Cube",
            "scale" : [
                0.16727209091186523,
                0.16727209091186523,
                0.16727209091186523
            ],
            "translation" : [
                0,
                0.15294383466243744,
                0
            ]
        },
        {
            "mesh" : 2,
            "name" : "Cube.001",
            "scale" : [
                0.16727209091186523,
                0.16727209091186523,
                0.16727209091186523
            ],
            "translation" : [
                -0.40913185477256775,
                0.15294383466243744,
                0
            ]
        },
        {
            "mesh" : 3,
            "name" : "Cube.002",
            "scale" : [
                0.16727209091186523,
                0.16727209091186523,
                0.16727209091186523
            ],
            "translation" : [
                0.42750921845436096,
                0.15294383466243744,
                0
            ]
        }
    ],
    "cameras" : [
        {
            "name" : "Camera",
            "perspective" : {
                "yfov" : 0.39959648408210363,
                "zfar" : 100,
                "znear" : 0.10000000149011612
            },
            "type" : "perspective"
        }
    ],
    "materials" : [
        {
            "doubleSided" : true,
            "emissiveFactor" : [
                1,
                1,
                1
            ],
            "emissiveTexture" : {
                "index" : 0,
                "texCoord" : 0
            },
            "name" : "random3",
            "pbrMetallicRoughness" : {}
        },
        {
            "doubleSided" : true,
            "emissiveFactor" : [
                0,
                0,
                0
            ],
            "name" : "Material",
            "pbrMetallicRoughness" : {
                "baseColorFactor" : [
                    0.8000000715255737,
                    0.11317382007837296,
                    0.10432779788970947,
                    1
                ],
                "metallicFactor" : 0,
                "roughnessFactor" : 0.5
            }
        }
    ],
    "meshes" : [
        {
            "name" : "random3.001",
            "primitives" : [
                {
                    "attributes" : {
                        "POSITION" : 0,
                        "NORMAL" : 1,
                        "TEXCOORD_0" : 2
                    },
                    "indices" : 3,
                    "material" : 0
                }
            ]
        },
        {
            "name" : "Cube",
            "primitives" : [
                {
                    "attributes" : {
                        "POSITION" : 4,
                        "NORMAL" : 5,
                        "TEXCOORD_0" : 6
                    },
                    "indices" : 7,
                    "material" : 1
                }
            ]
        },
        {
            "name" : "Cube.001",
            "primitives" : [
                {
                    "attributes" : {
                        "POSITION" : 8,
                        "NORMAL" : 9,
                        "TEXCOORD_0" : 10
                    },
                    "indices" : 7,
                    "material" : 1
                }
            ]
        },
        {
            "name" : "Cube.002",
            "primitives" : [
                {
                    "attributes" : {
                        "POSITION" : 11,
                        "NORMAL" : 12,
                        "TEXCOORD_0" : 13
                    },
                    "indices" : 7,
                    "material" : 1
                }
            ]
        }
    ],
    "textures" : [
        {
            "sampler" : 0,
            "source" : 0
        }
    ],
    "images" : [
        {
            "mimeType" : "image/jpeg",
            "name" : "random3",
            "uri" : "random3.jpg"
        }
    ],
    "accessors" : [
        {
            "bufferView" : 0,
            "componentType" : 5126,
            "count" : 4,
            "max" : [
                0.3311828076839447,
                0,
                0.5
            ],
            "min" : [
                -0.3311828076839447,
                0,
                -0.5
            ],
            "type" : "VEC3"
        },
        {
            "bufferView" : 1,
            "componentType" : 5126,
            "count" : 4,
            "type" : "VEC3"
        },
        {
            "bufferView" : 2,
            "componentType" : 5126,
            "count" : 4,
            "type" : "VEC2"
        },
        {
            "bufferView" : 3,
            "componentType" : 5123,
            "count" : 6,
            "type" : "SCALAR"
        },
        {
            "bufferView" : 4,
            "componentType" : 5126,
            "count" : 24,
            "max" : [
                1,
                1,
                1
            ],
            "min" : [
                -1,
                -1,
                -1
            ],
            "type" : "VEC3"
        },
        {
            "bufferView" : 5,
            "componentType" : 5126,
            "count" : 24,
            "type" : "VEC3"
        },
        {
            "bufferView" : 6,
            "componentType" : 5126,
            "count" : 24,
            "type" : "VEC2"
        },
        {
            "bufferView" : 7,
            "componentType" : 5123,
            "count" : 36,
            "type" : "SCALAR"
        },
        {
            "bufferView" : 8,
            "componentType" : 5126,
            "count" : 24,
            "max" : [
                1,
                1,
                1
            ],
            "min" : [
                -1,
                -1,
                -1
            ],
            "type" : "VEC3"
        },
        {
            "bufferView" : 9,
            "componentType" : 5126,
            "count" : 24,
            "type" : "VEC3"
        },
        {
            "bufferView" : 10,
            "componentType" : 5126,
            "count" : 24,
            "type" : "VEC2"
        },
        {
            "bufferView" : 11,
            "componentType" : 5126,
            "count" : 24,
            "max" : [
                1,
                1,
                1
            ],
            "min" : [
                -1,
                -1,
                -1
            ],
            "type" : "VEC3"
        },
        {
            "bufferView" : 12,
            "componentType" : 5126,
            "count" : 24,
            "type" : "VEC3"
        },
        {
            "bufferView" : 13,
            "componentType" : 5126,
            "count" : 24,
            "type" : "VEC2"
        }
    ],
    "bufferViews" : [
        {
            "buffer" : 0,
            "byteLength" : 48,
            "byteOffset" : 0
        },
        {
            "buffer" : 0,
            "byteLength" : 48,
            "byteOffset" : 48
        },
        {
            "buffer" : 0,
            "byteLength" : 32,
            "byteOffset" : 96
        },
        {
            "buffer" : 0,
            "byteLength" : 12,
            "byteOffset" : 128
        },
        {
            "buffer" : 0,
            "byteLength" : 288,
            "byteOffset" : 140
        },
        {
            "buffer" : 0,
            "byteLength" : 288,
            "byteOffset" : 428
        },
        {
            "buffer" : 0,
            "byteLength" : 192,
            "byteOffset" : 716
        },
        {
            "buffer" : 0,
            "byteLength" : 72,
            "byteOffset" : 908
        },
        {
            "buffer" : 0,
            "byteLength" : 288,
            "byteOffset" : 980
        },
        {
            "buffer" : 0,
            "byteLength" : 288,
            "byteOffset" : 1268
        },
        {
            "buffer" : 0,
            "byteLength" : 192,
            "byteOffset" : 1556
        },
        {
            "buffer" : 0,
            "byteLength" : 288,
            "byteOffset" : 1748
        },
        {
            "buffer" : 0,
            "byteLength" : 288,
            "byteOffset" : 2036
        },
        {
            "buffer" : 0,
            "byteLength" : 192,
            "byteOffset" : 2324
        }
    ],
    "samplers" : [
        {
            "magFilter" : 9729,
            "minFilter" : 9986
        }
    ],
    "buffers" : [
        {
            "byteLength" : 2516,
            "uri" : "scene-size-test2.bin"
        }
    ]
}
